<svg height="512" viewBox="0 0 64 64" width="512" xmlns="http://www.w3.org/2000/svg" xmlns:xlink="http://www.w3.org/1999/xlink"><linearGradient id="New_Gradient_Swatch_3" gradientUnits="userSpaceOnUse" x1="21" x2="21" y1="66.019" y2="3.987"><stop offset="0" stop-color="#006df0"/><stop offset="1" stop-color="#00e7f0"/></linearGradient><linearGradient id="New_Gradient_Swatch_3-2" gradientTransform="matrix(.707 .707 -.707 .707 11.807 -6.648)" x1="13.929" x2="13.929" xlink:href="#New_Gradient_Swatch_3" y1="66.019" y2="3.987"/><linearGradient id="New_Gradient_Swatch_3-3" gradientTransform="matrix(.707 .707 -.707 .707 15.95 -16.648)" x1="28.071" x2="28.071" xlink:href="#New_Gradient_Swatch_3" y1="66.019" y2="3.987"/><linearGradient id="New_Gradient_Swatch_3-4" x1="32" x2="32" xlink:href="#New_Gradient_Swatch_3" y1="66.019" y2="3.987"/><linearGradient id="New_Gradient_Swatch_3-5" x1="18" x2="18" xlink:href="#New_Gradient_Swatch_3" y1="66.019" y2="3.987"/><linearGradient id="New_Gradient_Swatch_3-6" x1="50" x2="50" xlink:href="#New_Gradient_Swatch_3" y1="66.019" y2="3.987"/><linearGradient id="New_Gradient_Swatch_3-8" gradientTransform="matrix(.8 .6 -.6 .8 28.29 -19.897)" x1="44" x2="44" xlink:href="#New_Gradient_Swatch_3" y1="66.019" y2="3.987"/><linearGradient id="New_Gradient_Swatch_3-9" gradientTransform="matrix(.8 .6 -.6 .8 30.189 -20.597)" x1="46" x2="46" xlink:href="#New_Gradient_Swatch_3" y1="66.019" y2="3.987"/><path d="m20 5h2v6h-2z" fill="url(#New_Gradient_Swatch_3)"/><path d="m12.929 7.929h2v6h-2z" fill="url(#New_Gradient_Swatch_3-2)" transform="matrix(.707 -.707 .707 .707 -3.648 13.049)"/><path d="m25.071 9.929h6v2h-6z" fill="url(#New_Gradient_Swatch_3-3)" transform="matrix(.707 -.707 .707 .707 .494 23.05)"/><path d="m57 41h-.323l-4.742-11.856a4.976 4.976 0 0 0 -4.643-3.144h-7.292v-1a5.006 5.006 0 0 0 -5-5h-9v-1a5 5 0 0 0 -10 0v1h-9a5.006 5.006 0 0 0 -5 5v26a5.006 5.006 0 0 0 5 5h4.08a6.991 6.991 0 0 0 13.84 0h18.16a6.991 6.991 0 0 0 13.84 0h2.08a3 3 0 0 0 3-3v-7a5.006 5.006 0 0 0 -5-5zm-9.708-13a2.984 2.984 0 0 1 2.785 1.886l4.446 11.114h-14.523v-13zm-29.292-9a3 3 0 0 1 6 0v1h-6zm0 41a5 5 0 1 1 5-5 5.006 5.006 0 0 1 -5 5zm20-6h-13.08a6.991 6.991 0 0 0 -13.84 0h-4.08a3 3 0 0 1 -3-3v-26a3 3 0 0 1 3-3h28a3 3 0 0 1 3 3zm12 6a5 5 0 1 1 5-5 5.006 5.006 0 0 1 -5 5zm10-7a1 1 0 0 1 -1 1h-2.08a6.991 6.991 0 0 0 -13.84 0h-3.08v-11h17a3 3 0 0 1 3 3z" fill="url(#New_Gradient_Swatch_3-4)"/><path d="m18 52a3 3 0 1 0 3 3 3 3 0 0 0 -3-3zm0 4a1 1 0 1 1 1-1 1 1 0 0 1 -1 1z" fill="url(#New_Gradient_Swatch_3-5)"/><path d="m50 52a3 3 0 1 0 3 3 3 3 0 0 0 -3-3zm0 4a1 1 0 1 1 1-1 1 1 0 0 1 -1 1z" fill="url(#New_Gradient_Swatch_3-6)"/><path d="m28 32h-4v-4a2 2 0 0 0 -2-2h-2a2 2 0 0 0 -2 2v4h-4a2 2 0 0 0 -2 2v2a2 2 0 0 0 2 2h4v4a2 2 0 0 0 2 2h2a2 2 0 0 0 2-2v-4h4a2 2 0 0 0 2-2v-2a2 2 0 0 0 -2-2zm0 4h-4a2 2 0 0 0 -2 2v4h-2v-4a2 2 0 0 0 -2-2h-4v-2h4a2 2 0 0 0 2-2v-4h2v4a2 2 0 0 0 2 2h4z" fill="url(#New_Gradient_Swatch_3)"/><path d="m41.5 31.5h5v1.999h-5z" fill="url(#New_Gradient_Swatch_3-8)" transform="matrix(.8 -.6 .6 .8 -10.7 32.889)"/><path d="m41 34h10v1.999h-10z" fill="url(#New_Gradient_Swatch_3-9)" transform="matrix(.8 -.6 .6 .8 -11.8 34.589)"/></svg>