<svg height="512" viewBox="0 0 64 64" width="512" xmlns="http://www.w3.org/2000/svg" xmlns:xlink="http://www.w3.org/1999/xlink"><linearGradient id="New_Gradient_Swatch_3" gradientUnits="userSpaceOnUse" x1="32" x2="32" y1="62.627" y2="1.8"><stop offset="0" stop-color="#006df0"/><stop offset="1" stop-color="#00e7f0"/></linearGradient><linearGradient id="New_Gradient_Swatch_3-3" x1="21" x2="21" xlink:href="#New_Gradient_Swatch_3" y1="62.627" y2="1.8"/><linearGradient id="New_Gradient_Swatch_3-5" x1="32" x2="32" xlink:href="#New_Gradient_Swatch_3" y1="62.627" y2="1.8"/><linearGradient id="New_Gradient_Swatch_3-6" x1="36" x2="36" xlink:href="#New_Gradient_Swatch_3" y1="62.627" y2="1.8"/><linearGradient id="New_Gradient_Swatch_3-7" x1="43" x2="43" xlink:href="#New_Gradient_Swatch_3" y1="62.627" y2="1.8"/><linearGradient id="New_Gradient_Swatch_3-8" x1="48" x2="48" xlink:href="#New_Gradient_Swatch_3" y1="62.627" y2="1.8"/><linearGradient id="New_Gradient_Swatch_3-9" x1="15" x2="15" xlink:href="#New_Gradient_Swatch_3" y1="62.627" y2="1.8"/><linearGradient id="New_Gradient_Swatch_3-10" x1="50" x2="50" xlink:href="#New_Gradient_Swatch_3" y1="62.627" y2="1.8"/><linearGradient id="New_Gradient_Swatch_3-11" x1="20" x2="20" xlink:href="#New_Gradient_Swatch_3" y1="62.627" y2="1.8"/><linearGradient id="New_Gradient_Swatch_3-12" x1="40.5" x2="40.5" xlink:href="#New_Gradient_Swatch_3" y1="62.627" y2="1.8"/><linearGradient id="New_Gradient_Swatch_3-14" x1="42.5" x2="42.5" xlink:href="#New_Gradient_Swatch_3" y1="62.627" y2="1.8"/><linearGradient id="New_Gradient_Swatch_3-15" x1="43.5" x2="43.5" xlink:href="#New_Gradient_Swatch_3" y1="62.627" y2="1.8"/><linearGradient id="New_Gradient_Swatch_3-16" x1="46" x2="46" xlink:href="#New_Gradient_Swatch_3" y1="62.627" y2="1.8"/><linearGradient id="New_Gradient_Swatch_3-17" x1="22" x2="22" xlink:href="#New_Gradient_Swatch_3" y1="62.627" y2="1.8"/><linearGradient id="New_Gradient_Swatch_3-18" x1="23.5" x2="23.5" xlink:href="#New_Gradient_Swatch_3" y1="62.627" y2="1.8"/><path d="m32 62a30 30 0 1 1 30-30 30.034 30.034 0 0 1 -30 30zm0-58a28 28 0 1 0 28 28 28.032 28.032 0 0 0 -28-28z" fill="url(#New_Gradient_Swatch_3)"/><path d="m32 58a26 26 0 1 1 26-26 26.03 26.03 0 0 1 -26 26zm0-50a24 24 0 1 0 24 24 24.028 24.028 0 0 0 -24-24z" fill="url(#New_Gradient_Swatch_3)"/><path d="m21 26a5 5 0 1 1 5-5 5.006 5.006 0 0 1 -5 5zm0-8a3 3 0 1 0 3 3 3 3 0 0 0 -3-3z" fill="url(#New_Gradient_Swatch_3-3)"/><path d="m32 50c-1.71 0-3-2.149-3-5s1.29-5 3-5 3 2.149 3 5-1.29 5-3 5zm0-8c-.249 0-1 1.064-1 3s.751 3 1 3 1-1.064 1-3-.751-3-1-3z" fill="url(#New_Gradient_Swatch_3)"/><path d="m31 24a1 1 0 0 1 -.556-1.832l1.567-1.044-2.458-1.224a1 1 0 0 1 0-1.79l2.459-1.229-1.567-1.044a1 1 0 0 1 0-1.664l3-2a1 1 0 1 1 1.11 1.664l-1.755 1.163 1.752 1.168a1 1 0 0 1 -.108 1.727l-2.208 1.105 2.211 1.105a1 1 0 0 1 .108 1.727l-3 2a1 1 0 0 1 -.555.168z" fill="url(#New_Gradient_Swatch_3-5)"/><path d="m39 35h-6a3 3 0 0 1 0-6h6a3 3 0 0 1 0 6zm-6-4a1 1 0 0 0 0 2h6a1 1 0 0 0 0-2z" fill="url(#New_Gradient_Swatch_3-6)"/><path d="m43 43a2 2 0 1 1 2-2 2 2 0 0 1 -2 2z" fill="url(#New_Gradient_Swatch_3-7)"/><path d="m48 41a2 2 0 1 1 2-2 2 2 0 0 1 -2 2z" fill="url(#New_Gradient_Swatch_3-8)"/><path d="m15 34a2 2 0 1 1 2-2 2 2 0 0 1 -2 2z" fill="url(#New_Gradient_Swatch_3-9)"/><path d="m50 32a3 3 0 1 1 3-3 3 3 0 0 1 -3 3zm0-4a1 1 0 1 0 1 1 1 1 0 0 0 -1-1z" fill="url(#New_Gradient_Swatch_3-10)"/><path d="m19 39a1 1 0 0 1 -.448-1.9l2-1a1 1 0 1 1 .894 1.79l-2 1a1 1 0 0 1 -.446.11z" fill="url(#New_Gradient_Swatch_3-11)"/><path d="m40 51a1 1 0 0 1 -.894-1.447l1-2a1 1 0 0 1 1.79.894l-1 2a1 1 0 0 1 -.896.553z" fill="url(#New_Gradient_Swatch_3-12)"/><path d="m40 18a1 1 0 0 1 -.707-1.707l1-1a1 1 0 0 1 1.414 1.414l-1 1a1 1 0 0 1 -.707.293z" fill="url(#New_Gradient_Swatch_3-12)"/><path d="m43 26h-1a1 1 0 0 1 0-2h1a1 1 0 0 1 0 2z" fill="url(#New_Gradient_Swatch_3-14)"/><path d="m44 23h-1a1 1 0 0 1 0-2h1a1 1 0 0 1 0 2z" fill="url(#New_Gradient_Swatch_3-15)"/><path d="m46 26a1 1 0 0 1 -1-1v-1a1 1 0 0 1 2 0v1a1 1 0 0 1 -1 1z" fill="url(#New_Gradient_Swatch_3-16)"/><path d="m18 49a1 1 0 0 1 -.316-1.949l1.906-.635-.485-.969a1 1 0 0 1 .895-1.447h2.613l-.562-1.684a1 1 0 0 1 .633-1.265l3-1a1 1 0 0 1 .632 1.9l-2.051.683.684 2.052a1 1 0 0 1 -.949 1.314h-2.382l.277.553a1 1 0 0 1 -.579 1.4l-3 1a1 1 0 0 1 -.316.047z" fill="url(#New_Gradient_Swatch_3-17)"/><path d="m24 33a1 1 0 0 1 -.9-.553l-1-2a1 1 0 0 1 1.79-.894l1 2a1 1 0 0 1 -.89 1.447z" fill="url(#New_Gradient_Swatch_3-18)"/></svg>