<svg height="512" viewBox="0 0 64 64" width="512" xmlns="http://www.w3.org/2000/svg" xmlns:xlink="http://www.w3.org/1999/xlink"><linearGradient id="New_Gradient_Swatch_3" gradientUnits="userSpaceOnUse" x1="32" x2="32" y1="63.881" y2=".696"><stop offset="0" stop-color="#006df0"/><stop offset="1" stop-color="#00e7f0"/></linearGradient><linearGradient id="New_Gradient_Swatch_3-2" gradientTransform="matrix(.707 .707 -.707 .707 13.08 -2.932)" x1="10.08" x2="10.08" xlink:href="#New_Gradient_Swatch_3" y1="63.881" y2=".696"/><linearGradient id="New_Gradient_Swatch_3-3" gradientTransform="matrix(.707 .707 -.707 .707 11.322 -7.175)" x1="14.322" x2="14.322" xlink:href="#New_Gradient_Swatch_3" y1="63.881" y2=".696"/><linearGradient id="New_Gradient_Swatch_3-4" gradientTransform="matrix(.707 .707 -.707 .707 15.908 -4.104)" x1="12.908" x2="12.908" xlink:href="#New_Gradient_Swatch_3" y1="63.881" y2=".696"/><linearGradient id="New_Gradient_Swatch_3-5" gradientTransform="matrix(.707 .707 -.707 .707 14.151 -8.347)" x1="17.151" x2="17.151" xlink:href="#New_Gradient_Swatch_3" y1="63.881" y2=".696"/><linearGradient id="New_Gradient_Swatch_3-6" gradientTransform="matrix(.707 .707 -.707 .707 18.737 -5.276)" x1="15.737" x2="15.737" xlink:href="#New_Gradient_Swatch_3" y1="63.881" y2=".696"/><linearGradient id="New_Gradient_Swatch_3-7" gradientTransform="matrix(.707 .707 -.707 .707 16.979 -9.518)" x1="19.979" x2="19.979" xlink:href="#New_Gradient_Swatch_3" y1="63.881" y2=".696"/><linearGradient id="New_Gradient_Swatch_3-8" gradientTransform="matrix(.707 .707 -.707 .707 21.565 -6.447)" x1="18.565" x2="18.565" xlink:href="#New_Gradient_Swatch_3" y1="63.881" y2=".696"/><linearGradient id="New_Gradient_Swatch_3-9" gradientTransform="matrix(.707 .707 -.707 .707 19.808 -10.69)" x1="22.808" x2="22.808" xlink:href="#New_Gradient_Swatch_3" y1="63.881" y2=".696"/><linearGradient id="New_Gradient_Swatch_3-10" gradientTransform="matrix(.707 .707 -.707 .707 21.678 -32.175)" x1="49.678" x2="49.678" xlink:href="#New_Gradient_Swatch_3" y1="63.881" y2=".696"/><linearGradient id="New_Gradient_Swatch_3-11" gradientTransform="matrix(.707 .707 -.707 .707 25.92 -33.932)" x1="53.92" x2="53.92" xlink:href="#New_Gradient_Swatch_3" y1="63.881" y2=".696"/><linearGradient id="New_Gradient_Swatch_3-12" gradientTransform="matrix(.707 .707 -.707 .707 22.849 -29.347)" x1="46.85" x2="46.85" xlink:href="#New_Gradient_Swatch_3" y1="63.881" y2=".696"/><linearGradient id="New_Gradient_Swatch_3-13" gradientTransform="matrix(.707 .707 -.707 .707 27.092 -31.104)" x1="51.092" x2="51.092" xlink:href="#New_Gradient_Swatch_3" y1="63.881" y2=".696"/><linearGradient id="New_Gradient_Swatch_3-14" gradientTransform="matrix(.707 .707 -.707 .707 24.013 -26.515)" x1="44.021" x2="44.021" xlink:href="#New_Gradient_Swatch_3" y1="63.881" y2=".696"/><linearGradient id="New_Gradient_Swatch_3-15" gradientTransform="matrix(.707 .707 -.707 .707 28.255 -28.272)" x1="48.264" x2="48.264" xlink:href="#New_Gradient_Swatch_3" y1="63.881" y2=".696"/><linearGradient id="New_Gradient_Swatch_3-16" gradientTransform="matrix(.707 .707 -.707 .707 25.192 -23.69)" x1="41.192" x2="41.192" xlink:href="#New_Gradient_Swatch_3" y1="63.881" y2=".696"/><linearGradient id="New_Gradient_Swatch_3-17" gradientTransform="matrix(.707 .707 -.707 .707 29.452 -25.453)" x1="45.435" x2="45.435" xlink:href="#New_Gradient_Swatch_3" y1="63.881" y2=".696"/><linearGradient id="New_Gradient_Swatch_3-18" gradientTransform="matrix(.707 .707 -.707 .707 34.565 -1.062)" x1="18.565" x2="18.565" xlink:href="#New_Gradient_Swatch_3" y1="63.881" y2=".696"/><linearGradient id="New_Gradient_Swatch_3-19" gradientTransform="matrix(.707 .707 -.707 .707 38.808 -2.82)" x1="22.808" x2="22.808" xlink:href="#New_Gradient_Swatch_3" y1="63.881" y2=".696"/><linearGradient id="New_Gradient_Swatch_3-20" gradientTransform="matrix(.707 .707 -.707 .707 35.737 1.766)" x1="15.737" x2="15.737" xlink:href="#New_Gradient_Swatch_3" y1="63.881" y2=".696"/><linearGradient id="New_Gradient_Swatch_3-21" gradientTransform="matrix(.707 .707 -.707 .707 39.979 .009)" x1="19.979" x2="19.979" xlink:href="#New_Gradient_Swatch_3" y1="63.881" y2=".696"/><linearGradient id="New_Gradient_Swatch_3-22" gradientTransform="matrix(.707 .707 -.707 .707 36.908 4.594)" x1="12.908" x2="12.908" xlink:href="#New_Gradient_Swatch_3" y1="63.881" y2=".696"/><linearGradient id="New_Gradient_Swatch_3-23" gradientTransform="matrix(.707 .707 -.707 .707 41.151 2.837)" x1="17.151" x2="17.151" xlink:href="#New_Gradient_Swatch_3" y1="63.881" y2=".696"/><linearGradient id="New_Gradient_Swatch_3-24" gradientTransform="matrix(.707 .707 -.707 .707 38.08 7.423)" x1="10.08" x2="10.08" xlink:href="#New_Gradient_Swatch_3" y1="63.881" y2=".696"/><linearGradient id="New_Gradient_Swatch_3-25" gradientTransform="matrix(.707 .707 -.707 .707 42.322 5.666)" x1="14.322" x2="14.322" xlink:href="#New_Gradient_Swatch_3" y1="63.881" y2=".696"/><linearGradient id="New_Gradient_Swatch_3-26" gradientTransform="matrix(.707 .707 -.707 .707 44.192 -15.82)" x1="41.192" x2="41.192" xlink:href="#New_Gradient_Swatch_3" y1="63.881" y2=".696"/><linearGradient id="New_Gradient_Swatch_3-27" gradientTransform="matrix(.707 .707 -.707 .707 42.414 -20.061)" x1="45.435" x2="45.435" xlink:href="#New_Gradient_Swatch_3" y1="63.881" y2=".696"/><linearGradient id="New_Gradient_Swatch_3-28" gradientTransform="matrix(.707 .707 -.707 .707 47.021 -16.991)" x1="44.021" x2="44.021" xlink:href="#New_Gradient_Swatch_3" y1="63.881" y2=".696"/><linearGradient id="New_Gradient_Swatch_3-29" gradientTransform="matrix(.707 .707 -.707 .707 45.263 -21.234)" x1="48.264" x2="48.264" xlink:href="#New_Gradient_Swatch_3" y1="63.881" y2=".696"/><linearGradient id="New_Gradient_Swatch_3-30" gradientTransform="matrix(.707 .707 -.707 .707 49.849 -18.163)" x1="46.85" x2="46.85" xlink:href="#New_Gradient_Swatch_3" y1="63.881" y2=".696"/><linearGradient id="New_Gradient_Swatch_3-31" gradientTransform="matrix(.707 .707 -.707 .707 48.092 -22.406)" x1="51.092" x2="51.092" xlink:href="#New_Gradient_Swatch_3" y1="63.881" y2=".696"/><linearGradient id="New_Gradient_Swatch_3-32" gradientTransform="matrix(.707 .707 -.707 .707 52.678 -19.335)" x1="49.678" x2="49.678" xlink:href="#New_Gradient_Swatch_3" y1="63.881" y2=".696"/><linearGradient id="New_Gradient_Swatch_3-33" gradientTransform="matrix(.707 .707 -.707 .707 50.92 -23.577)" x1="53.92" x2="53.92" xlink:href="#New_Gradient_Swatch_3" y1="63.881" y2=".696"/><path d="m47.557 32 9.9-9.9a11 11 0 0 0 -15.557-15.556l-9.9 9.9-9.9-9.9a11 11 0 0 0 -15.556 15.556l9.9 9.9-9.9 9.9a11 11 0 0 0 15.556 15.556l9.9-9.9 9.9 9.9a11 11 0 0 0 15.556-15.556zm-4.244-24.042a9 9 0 0 1 12.729 12.729l-9.9 9.9-12.728-12.729zm-35.355 12.729a9 9 0 0 1 12.729-12.729l9.9 9.9-12.729 12.728zm12.729 35.355a9 9 0 0 1 -12.729-12.729l9.9-9.9 12.728 12.729zm-1.415-24.042 12.728-12.728 12.728 12.728-12.728 12.728zm36.77 24.042a9 9 0 0 1 -12.729 0l-9.9-9.9 12.729-12.728 9.9 9.9a9.012 9.012 0 0 1 0 12.728z" fill="url(#New_Gradient_Swatch_3)"/><path d="m9.08 13.322h2v2h-2z" fill="url(#New_Gradient_Swatch_3-2)" transform="matrix(.707 -.707 .707 .707 -7.175 11.322)"/><path d="m13.322 9.08h2v2h-2z" fill="url(#New_Gradient_Swatch_3-3)" transform="matrix(.707 -.707 .707 .707 -2.932 13.08)"/><path d="m11.908 16.151h2v2h-2z" fill="url(#New_Gradient_Swatch_3-4)" transform="matrix(.707 -.707 .707 .707 -8.347 14.151)"/><path d="m16.151 11.908h2v2h-2z" fill="url(#New_Gradient_Swatch_3-5)" transform="matrix(.707 -.707 .707 .707 -4.104 15.908)"/><path d="m14.736 18.979h2v2h-2z" fill="url(#New_Gradient_Swatch_3-6)" transform="matrix(.707 -.707 .707 .707 -9.518 16.979)"/><path d="m18.979 14.737h2v2h-2z" fill="url(#New_Gradient_Swatch_3-7)" transform="matrix(.707 -.707 .707 .707 -5.276 18.737)"/><path d="m17.565 21.808h2v2h-2z" fill="url(#New_Gradient_Swatch_3-8)" transform="matrix(.707 -.707 .707 .707 -10.69 19.808)"/><path d="m21.808 17.565h2v2h-2z" fill="url(#New_Gradient_Swatch_3-9)" transform="matrix(.707 -.707 .707 .707 -6.447 21.565)"/><path d="m48.678 9.08h2v2h-2z" fill="url(#New_Gradient_Swatch_3-10)" transform="matrix(.707 -.707 .707 .707 7.423 38.08)"/><path d="m52.92 13.322h2v2h-2z" fill="url(#New_Gradient_Swatch_3-11)" transform="matrix(.707 -.707 .707 .707 5.665 42.322)"/><path d="m45.85 11.908h2v2h-2z" fill="url(#New_Gradient_Swatch_3-12)" transform="matrix(.707 -.707 .707 .707 4.594 36.908)"/><path d="m50.092 16.151h2v2h-2z" fill="url(#New_Gradient_Swatch_3-13)" transform="matrix(.707 -.707 .707 .707 2.837 41.151)"/><path d="m43.021 14.737h2v2h-2z" fill="url(#New_Gradient_Swatch_3-14)" transform="matrix(.707 -.707 .707 .707 1.762 35.729)"/><path d="m47.264 18.979h2v2h-2z" fill="url(#New_Gradient_Swatch_3-15)" transform="matrix(.707 -.707 .707 .707 .005 39.971)"/><path d="m40.192 17.565h2v2h-2z" fill="url(#New_Gradient_Swatch_3-16)" transform="matrix(.707 -.707 .707 .707 -1.062 34.565)"/><path d="m44.435 21.807h2v2h-2z" fill="url(#New_Gradient_Swatch_3-17)" transform="matrix(.707 -.707 .707 .707 -2.814 38.824)"/><path d="m17.565 40.192h2v2h-2z" fill="url(#New_Gradient_Swatch_3-18)" transform="matrix(.707 -.707 .707 .707 -23.69 25.192)"/><path d="m21.808 44.435h2v2h-2z" fill="url(#New_Gradient_Swatch_3-19)" transform="matrix(.707 -.707 .707 .707 -25.447 29.435)"/><path d="m14.737 43.021h2v2h-2z" fill="url(#New_Gradient_Swatch_3-20)" transform="matrix(.707 -.707 .707 .707 -26.518 24.021)"/><path d="m18.979 47.263h2v2h-2z" fill="url(#New_Gradient_Swatch_3-21)" transform="matrix(.707 -.707 .707 .707 -28.276 28.263)"/><path d="m11.908 45.849h2v2h-2z" fill="url(#New_Gradient_Swatch_3-22)" transform="matrix(.707 -.707 .707 .707 -29.347 22.849)"/><path d="m16.151 50.092h2v2h-2z" fill="url(#New_Gradient_Swatch_3-23)" transform="matrix(.707 -.707 .707 .707 -31.104 27.092)"/><path d="m9.08 48.678h2v2h-2z" fill="url(#New_Gradient_Swatch_3-24)" transform="matrix(.707 -.707 .707 .707 -32.175 21.678)"/><path d="m13.322 52.921h2v2h-2z" fill="url(#New_Gradient_Swatch_3-25)" transform="matrix(.707 -.707 .707 .707 -33.933 25.92)"/><path d="m40.192 44.435h2v2h-2z" fill="url(#New_Gradient_Swatch_3-26)" transform="matrix(.707 -.707 .707 .707 -20.062 42.435)"/><path d="m44.435 40.192h2v2h-2z" fill="url(#New_Gradient_Swatch_3-27)" transform="matrix(.707 -.707 .707 .707 -15.821 44.171)"/><path d="m43.02 47.264h2v2h-2z" fill="url(#New_Gradient_Swatch_3-28)" transform="matrix(.707 -.707 .707 .707 -21.234 45.263)"/><path d="m47.264 43.021h2v2h-2z" fill="url(#New_Gradient_Swatch_3-29)" transform="matrix(.707 -.707 .707 .707 -16.991 47.021)"/><path d="m45.85 50.092h2v2h-2z" fill="url(#New_Gradient_Swatch_3-30)" transform="matrix(.707 -.707 .707 .707 -22.405 48.092)"/><path d="m50.092 45.849h2v2h-2z" fill="url(#New_Gradient_Swatch_3-31)" transform="matrix(.707 -.707 .707 .707 -18.163 49.849)"/><path d="m48.678 52.921h2v2h-2z" fill="url(#New_Gradient_Swatch_3-32)" transform="matrix(.707 -.707 .707 .707 -23.577 50.92)"/><path d="m52.92 48.678h2v2h-2z" fill="url(#New_Gradient_Swatch_3-33)" transform="matrix(.707 -.707 .707 .707 -19.335 52.677)"/></svg>