<svg height="512" viewBox="0 0 64 64" width="512" xmlns="http://www.w3.org/2000/svg" xmlns:xlink="http://www.w3.org/1999/xlink"><linearGradient id="New_Gradient_Swatch_3" gradientUnits="userSpaceOnUse" x1="32" x2="32" y1="60.782" y2="4.129"><stop offset="0" stop-color="#f28705"/><stop offset="1" stop-color="#f25c26"/></linearGradient><linearGradient id="New_Gradient_Swatch_3-2" x1="18" x2="18" xlink:href="#New_Gradient_Swatch_3" y1="60.782" y2="4.129"/><linearGradient id="New_Gradient_Swatch_3-3" x1="42" x2="42" xlink:href="#New_Gradient_Swatch_3" y1="60.782" y2="4.129"/><path d="m59 36a3 3 0 0 0 -3 3v2h-48v-12a3 3 0 0 0 -6 0v33h6v-5h48v5h6v-23a3 3 0 0 0 -3-3zm-53 24h-2v-31a1 1 0 0 1 2 0zm2-5v-12h23v12zm25 0v-12h23v12zm27 5h-2v-21a1 1 0 0 1 2 0z" fill="url(#New_Gradient_Swatch_3)"/><path d="m24 34h-12a3 3 0 0 0 0 6h12a3 3 0 0 0 0-6zm0 4h-12a1 1 0 0 1 0-2h12a1 1 0 0 1 0 2z" fill="url(#New_Gradient_Swatch_3-2)"/><g fill="url(#New_Gradient_Swatch_3-3)"><path d="m49 13h-4v-4a2 2 0 0 0 -2-2h-2a2 2 0 0 0 -2 2v4h-4a2 2 0 0 0 -2 2v2a2 2 0 0 0 2 2h4v4a2 2 0 0 0 2 2h2a2 2 0 0 0 2-2v-4h4a2 2 0 0 0 2-2v-2a2 2 0 0 0 -2-2zm0 4h-4a2 2 0 0 0 -2 2v4h-2v-4a2 2 0 0 0 -2-2h-4v-2h4a2 2 0 0 0 2-2v-4h2v4a2 2 0 0 0 2 2h4z"/><path d="m42 30a14 14 0 1 0 -14-14 14.015 14.015 0 0 0 14 14zm0-26a12 12 0 1 1 -12 12 12.013 12.013 0 0 1 12-12z"/></g></svg>