<svg height="512" viewBox="0 0 64 64" width="512" xmlns="http://www.w3.org/2000/svg" xmlns:xlink="http://www.w3.org/1999/xlink"><linearGradient id="New_Gradient_Swatch_3" gradientUnits="userSpaceOnUse" x1="32" x2="32" y1="59.383" y2="8.013"><stop offset="0" stop-color="#006df0"/><stop offset="1" stop-color="#00e7f0"/></linearGradient><linearGradient id="New_Gradient_Swatch_3-2" x1="22.5" x2="22.5" xlink:href="#New_Gradient_Swatch_3" y1="59.383" y2="8.013"/><linearGradient id="New_Gradient_Swatch_3-3" x1="25" x2="25" xlink:href="#New_Gradient_Swatch_3" y1="59.383" y2="8.013"/><linearGradient id="New_Gradient_Swatch_3-4" x1="41" x2="41" xlink:href="#New_Gradient_Swatch_3" y1="59.383" y2="8.013"/><linearGradient id="New_Gradient_Swatch_3-5" x1="55" x2="55" xlink:href="#New_Gradient_Swatch_3" y1="59.383" y2="8.013"/><linearGradient id="New_Gradient_Swatch_3-6" x1="9" x2="9" xlink:href="#New_Gradient_Swatch_3" y1="59.383" y2="8.013"/><linearGradient id="New_Gradient_Swatch_3-7" x1="39.5" x2="39.5" xlink:href="#New_Gradient_Swatch_3" y1="59.383" y2="8.013"/><linearGradient id="New_Gradient_Swatch_3-8" x1="31" x2="31" xlink:href="#New_Gradient_Swatch_3" y1="59.383" y2="8.013"/><linearGradient id="New_Gradient_Swatch_3-9" x1="23" x2="23" xlink:href="#New_Gradient_Swatch_3" y1="59.383" y2="8.013"/><linearGradient id="New_Gradient_Swatch_3-10" x1="43" x2="43" xlink:href="#New_Gradient_Swatch_3" y1="59.383" y2="8.013"/><path d="m56.569 27.425a7.011 7.011 0 0 0 -7.825-9.314 7 7 0 0 0 -10.091-4.257 6.992 6.992 0 0 0 -12.78-1.237 6.941 6.941 0 0 0 -2.873-.617 7.012 7.012 0 0 0 -6.966 6.3 7.005 7.005 0 0 0 -8.6 9.124 7.989 7.989 0 0 0 -1.647 14.364 7 7 0 0 0 3.213 13.212h15a5.006 5.006 0 0 0 5-5v-1h9a5.006 5.006 0 0 0 5-5v-1h11a8 8 0 0 0 2.569-15.575zm-2.569 13.575h-20a3 3 0 0 1 0-6h4a1 1 0 0 0 0-2h-4a5 5 0 0 0 0 10h7v1a3 3 0 0 1 -3 3h-15a1 1 0 0 0 0 2h4v1a3 3 0 0 1 -3 3h-12.054l.011-1.033a3.01 3.01 0 0 1 3-2.967h1.043a1 1 0 0 0 0-2h-1.044a5.016 5.016 0 0 0 -5 4.945l-.011 1.055h-.945a5 5 0 0 1 0-10h.563a.806.806 0 0 0 .088-.018c.117.005.231.018.349.018h8a1 1 0 0 0 0-2h-8a6 6 0 0 1 -.973-11.912c.017 0 .664-.088.973-.088a6.006 6.006 0 0 1 6 6 1 1 0 0 0 2 0 8.009 8.009 0 0 0 -8-8c-.186 0-.372.032-.558.045a4.908 4.908 0 0 1 -.442-2.045 5.006 5.006 0 0 1 5-5 4.925 4.925 0 0 1 2.167.507 7.03 7.03 0 0 0 6.833 5.493 1 1 0 0 0 0-2 5.017 5.017 0 0 1 -4.943-4.262c0-.022-.057-.488-.057-.738a5.006 5.006 0 0 1 5-5 4.948 4.948 0 0 1 2.181.505 7 7 0 0 0 -.181 1.495 1 1 0 0 0 2 0 5 5 0 0 1 .275-1.638.078.078 0 0 0 .01-.015 4.982 4.982 0 0 1 9.627.861 6.963 6.963 0 0 0 -1.912 4.792 5.006 5.006 0 0 1 -5 5 1 1 0 0 0 0 2 7.008 7.008 0 0 0 7-7 5 5 0 0 1 9.973-.545s0 .008 0 .012a5.21 5.21 0 0 1 .027.533 5.006 5.006 0 0 1 -5 5 1 1 0 0 0 0 2 7.005 7.005 0 0 0 6.994-6.889 4.921 4.921 0 0 1 1.006-.111 5.006 5.006 0 0 1 5 5 4.908 4.908 0 0 1 -.442 2.045c-.186-.013-.372-.045-.558-.045a8.009 8.009 0 0 0 -8 8 1 1 0 0 0 2 0 6.006 6.006 0 0 1 6-6c.309 0 .956.085.973.088a6 6 0 0 1 -.973 11.912z" fill="url(#New_Gradient_Swatch_3)"/><path d="m23 41h-1a1 1 0 0 0 0 2h1a1 1 0 0 0 0-2z" fill="url(#New_Gradient_Swatch_3-2)"/><path d="m26 31a3 3 0 0 0 -3 3v2a1 1 0 0 0 2 0v-2a1 1 0 0 1 1-1 1 1 0 0 0 0-2z" fill="url(#New_Gradient_Swatch_3-3)"/><path d="m40 27a1 1 0 0 0 0 2 1 1 0 0 1 1 1 1 1 0 0 0 2 0 3 3 0 0 0 -3-3z" fill="url(#New_Gradient_Swatch_3-4)"/><path d="m54 32a1 1 0 0 0 0 2 1 1 0 0 1 0 2 1 1 0 0 0 0 2 3 3 0 0 0 0-6z" fill="url(#New_Gradient_Swatch_3-5)"/><path d="m10 32a3 3 0 0 0 -3 3 1 1 0 0 0 2 0 1 1 0 0 1 1-1 1 1 0 0 0 0-2z" fill="url(#New_Gradient_Swatch_3-6)"/><path d="m40 37h-1a1 1 0 0 0 0 2h1a1 1 0 0 0 0-2z" fill="url(#New_Gradient_Swatch_3-7)"/><path d="m30 17a1 1 0 0 0 1-1 1 1 0 0 1 1-1 1 1 0 0 0 0-2 3 3 0 0 0 -3 3 1 1 0 0 0 1 1z" fill="url(#New_Gradient_Swatch_3-8)"/><path d="m25 21a1 1 0 0 0 -1-1 1 1 0 0 1 -1-1 1 1 0 0 0 -2 0 3 3 0 0 0 3 3 1 1 0 0 0 1-1z" fill="url(#New_Gradient_Swatch_3-9)"/><path d="m42 19a1 1 0 0 1 1 1 1 1 0 0 0 2 0 3 3 0 0 0 -3-3 1 1 0 0 0 0 2z" fill="url(#New_Gradient_Swatch_3-10)"/></svg>