<svg height="512" viewBox="0 0 64 64" width="512" xmlns="http://www.w3.org/2000/svg" xmlns:xlink="http://www.w3.org/1999/xlink"><linearGradient id="New_Gradient_Swatch_3" gradientUnits="userSpaceOnUse" x1="19" x2="19" y1="66.539" y2=".436"><stop offset="0" stop-color="#006df0"/><stop offset="1" stop-color="#00e7f0"/></linearGradient><linearGradient id="New_Gradient_Swatch_3-2" x1="35" x2="35" xlink:href="#New_Gradient_Swatch_3" y1="66.539" y2=".436"/><linearGradient id="New_Gradient_Swatch_3-6" x1="44" x2="44" xlink:href="#New_Gradient_Swatch_3" y1="66.539" y2=".436"/><linearGradient id="New_Gradient_Swatch_3-7" x1="55" x2="55" xlink:href="#New_Gradient_Swatch_3" y1="66.539" y2=".436"/><g id="Call_Hospital" data-name="Call Hospital"><path d="m36 13v-6a5.006 5.006 0 0 0 -5-5h-24a5.006 5.006 0 0 0 -5 5v50a5.006 5.006 0 0 0 5 5h24a5.006 5.006 0 0 0 5-5v-14h-2v14a3 3 0 0 1 -3 3h-24a3 3 0 0 1 -3-3v-50a3 3 0 0 1 3-3h2v1a3 3 0 0 0 3 3h14a3 3 0 0 0 3-3v-1h2a3 3 0 0 1 3 3v6zm-9-8a1 1 0 0 1 -1 1h-14a1 1 0 0 1 -1-1v-1h16z" fill="url(#New_Gradient_Swatch_3)"/><path d="m18 48v-24a9.01 9.01 0 0 1 9-9h16a9.01 9.01 0 0 1 9 9v8a9.01 9.01 0 0 1 -9 9h-15.333a1.007 1.007 0 0 0 -.6.2zm9-31a7.008 7.008 0 0 0 -7 7v20l5.867-4.4a3.014 3.014 0 0 1 1.8-.6h15.333a7.008 7.008 0 0 0 7-7v-8a7.008 7.008 0 0 0 -7-7z" fill="url(#New_Gradient_Swatch_3-2)"/><path d="m6 50h26v2h-26z" fill="url(#New_Gradient_Swatch_3)"/><path d="m19 59a3 3 0 1 1 3-3 3 3 0 0 1 -3 3zm0-4a1 1 0 1 0 1 1 1 1 0 0 0 -1-1z" fill="url(#New_Gradient_Swatch_3)"/><path d="m42 25h-4v-4a2 2 0 0 0 -2-2h-2a2 2 0 0 0 -2 2v4h-4a2 2 0 0 0 -2 2v2a2 2 0 0 0 2 2h4v4a2 2 0 0 0 2 2h2a2 2 0 0 0 2-2v-4h4a2 2 0 0 0 2-2v-2a2 2 0 0 0 -2-2zm0 4h-4a2 2 0 0 0 -2 2v4h-2v-4a2 2 0 0 0 -2-2h-4v-2h4a2 2 0 0 0 2-2v-4h2v4a2 2 0 0 0 2 2h4z" fill="url(#New_Gradient_Swatch_3-2)"/><path d="m42 44h4v2h-4z" fill="url(#New_Gradient_Swatch_3-6)"/><path d="m48 44h14v2h-14z" fill="url(#New_Gradient_Swatch_3-7)"/><path d="m42 48h4v2h-4z" fill="url(#New_Gradient_Swatch_3-6)"/><path d="m48 48h14v2h-14z" fill="url(#New_Gradient_Swatch_3-7)"/><path d="m42 52h4v2h-4z" fill="url(#New_Gradient_Swatch_3-6)"/><path d="m48 52h14v2h-14z" fill="url(#New_Gradient_Swatch_3-7)"/><path d="m42 56h4v2h-4z" fill="url(#New_Gradient_Swatch_3-6)"/><path d="m48 56h14v2h-14z" fill="url(#New_Gradient_Swatch_3-7)"/></g></svg>