<svg height="512" viewBox="0 0 64 64" width="512" xmlns="http://www.w3.org/2000/svg" xmlns:xlink="http://www.w3.org/1999/xlink"><linearGradient id="New_Gradient_Swatch_3" gradientUnits="userSpaceOnUse" x1="32" x2="32" y1="62.26" y2=".888"><stop offset="0" stop-color="#006df0"/><stop offset="1" stop-color="#00e7f0"/></linearGradient><linearGradient id="New_Gradient_Swatch_3-2" x1="23.895" x2="40.105" xlink:href="#New_Gradient_Swatch_3" y1="27" y2="27"/><path d="m47 10v-8h-30v8l6 37.078v6.922h-2v5a3 3 0 0 0 3 3h16a3 3 0 0 0 3-3v-5h-2v-6.922zm-28-6h26v4h-26zm25.83 6-5.684 36h-14.292l-5.684-36zm-3.83 49a1 1 0 0 1 -1 1h-16a1 1 0 0 1 -1-1v-3h7v-3h4v3h7zm-5-5v-1a2 2 0 0 0 -2-2h-4a2 2 0 0 0 -2 2v1h-3v-6h14v6z" fill="url(#New_Gradient_Swatch_3)"/><path d="m23.9 16 2.2 22h11.81l2.2-22zm12.2 20h-8.19l-1.8-18h11.79z" fill="url(#New_Gradient_Swatch_3-2)"/></svg>