<?xml version="1.0"?>
<svg xmlns="http://www.w3.org/2000/svg" xmlns:xlink="http://www.w3.org/1999/xlink" viewBox="0 0 64 64" width="512" height="512"><defs><linearGradient id="New_Gradient_Swatch_3" x1="32" y1="61.228" x2="32" y2="-0.146" gradientUnits="userSpaceOnUse"><stop offset="0" stop-color="#006df0"/><stop offset="1" stop-color="#00e7f0"/></linearGradient><linearGradient id="New_Gradient_Swatch_3-2" x1="16" y1="61.228" x2="16" y2="-0.146" xlink:href="#New_Gradient_Swatch_3"/></defs><g id="Doctor-2" data-name="Doctor"><path d="M60.858,48.957A10.957,10.957,0,0,0,49.907,39H46.072a3,3,0,0,1-2.45-1.269l-2.589-3.665A14.954,14.954,0,0,0,44.1,29H45.31a2.989,2.989,0,0,0,2.957-2.507L48.6,24.5A3,3,0,0,0,45.64,21H45V19.9A5.009,5.009,0,0,0,49,15V7a5.006,5.006,0,0,0-5-5H11v9a9.011,9.011,0,0,0,8,8.941V21h-.64A3,3,0,0,0,15.4,24.493l.331,2A2.987,2.987,0,0,0,18.69,29H19.9a14.954,14.954,0,0,0,3.07,5.066l-2.589,3.665A3,3,0,0,1,17.928,39H14.093A10.957,10.957,0,0,0,3.142,48.957L1.9,62H62.1ZM41.212,37.788l-3.327,4.653-3.9-4.047.764-.255a14.96,14.96,0,0,0,4.821-2.681Zm-5.476,5.305L34.465,45h-4.93l-1.271-1.907L32,39.22ZM45.64,23a1,1,0,0,1,.765.357.98.98,0,0,1,.218.81l-.33,2A1,1,0,0,1,45.31,27h-.64A15.058,15.058,0,0,0,45,23.91V23ZM18.69,27a1,1,0,0,1-.983-.833l-.332-2.006a.979.979,0,0,1,.22-.8A1,1,0,0,1,18.36,23H19v.91A15.058,15.058,0,0,0,19.33,27ZM13,11V4H44a3,3,0,0,1,3,3v8a3,3,0,0,1-3,3H20A7.008,7.008,0,0,1,13,11Zm8,12.91V20H43v3.91a12.974,12.974,0,0,1-8.886,12.331l-1.17.39a3,3,0,0,1-1.887,0l-1.171-.39A12.974,12.974,0,0,1,21,23.91Zm3.433,11.548a14.955,14.955,0,0,0,4.82,2.681l.765.255-3.9,4.047-3.327-4.653ZM26.124,60H4.1L5.133,49.146A8.965,8.965,0,0,1,14.093,41H15v9.142a4,4,0,1,0,2,0V41h.928a5,5,0,0,0,3.6-1.538l4.359,6.1.958-.992,1.116,1.674ZM16,52a2,2,0,1,1-2,2A2,2,0,0,1,16,52Zm12.142,8,1.733-13h4.25l1.733,13Zm9.734,0L36.041,46.241l1.116-1.674.958.992,4.359-6.1A5,5,0,0,0,46.072,41H47v5.08A7,7,0,0,0,41,53v5h4V56H43V53a5,5,0,0,1,10,0v3H51v2h4V53a7,7,0,0,0-6-6.92V41h.907a8.965,8.965,0,0,1,8.96,8.146L59.9,60Z" style="fill:url(#New_Gradient_Swatch_3)"/><rect x="15" y="53" width="2" height="2" style="fill:url(#New_Gradient_Swatch_3-2)"/></g></svg>
