<svg height="512" viewBox="0 0 64 64" width="512" xmlns="http://www.w3.org/2000/svg" xmlns:xlink="http://www.w3.org/1999/xlink"><linearGradient id="New_Gradient_Swatch_3" gradientUnits="userSpaceOnUse" x1="34.956" x2="34.956" y1="62.552" y2=".591"><stop offset="0" stop-color="#006df0"/><stop offset="1" stop-color="#00e7f0"/></linearGradient><linearGradient id="New_Gradient_Swatch_3-2" x1="9" x2="9" xlink:href="#New_Gradient_Swatch_3" y1="62.552" y2=".591"/><path d="m61.1 10.2-2-3.464a9 9 0 0 0 -12.289-3.298l-4.331 2.5-.5-.866a3 3 0 0 0 -4.1-1.1 3 3 0 0 0 -1.1 4.1l.5.866-18.18 10.5a9.047 9.047 0 0 0 -4.472 8.544 3.076 3.076 0 0 1 -1.477 2.973l-3.544 2.045a3.971 3.971 0 0 0 2 7.427 4.284 4.284 0 0 0 2.142-.578l3.4-1.965a3.079 3.079 0 0 1 3.314.207 9.048 9.048 0 0 0 9.635.4l18.186-10.5.5.865a3 3 0 1 0 5.2-3l-.5-.866 4.331-2.5a9.013 9.013 0 0 0 3.285-12.29zm-16.832 17.8h-9.268v2h5.8l-11.7 6.758a7.043 7.043 0 0 1 -7.5-.31 5.06 5.06 0 0 0 -5.453-.3l-3.4 1.965a2.121 2.121 0 0 1 -2.815-.553 2.008 2.008 0 0 1 -.269-1.572 1.985 1.985 0 0 1 .945-1.259l3.542-2.044a4.933 4.933 0 0 0 2.204-2.685h16.646v-2h-16.378c0-.061 0-.121 0-.183a7.039 7.039 0 0 1 3.478-6.647l18.186-10.5 9 15.588zm7.614.223a1 1 0 0 1 -.759.1.99.99 0 0 1 -.606-.466l-12-20.785a1 1 0 1 1 1.731-1l12 20.784a1 1 0 0 1 -.366 1.367zm4.929-7.465-4.331 2.5-9-15.588 4.33-2.5a7 7 0 0 1 9.561 2.562l2 3.464a7.008 7.008 0 0 1 -2.56 9.562z" fill="url(#New_Gradient_Swatch_3)"/><path d="m9 62a7.008 7.008 0 0 1 -7-7c0-3.555 5.576-10.8 6.212-11.615l.788-1.01.788 1.01c.636.815 6.212 8.06 6.212 11.615a7.008 7.008 0 0 1 -7 7zm0-16.344c-2.195 2.978-5 7.423-5 9.344a5 5 0 0 0 10 0c0-1.923-2.8-6.367-5-9.344z" fill="url(#New_Gradient_Swatch_3-2)"/></svg>