<svg height="512" viewBox="0 0 64 64" width="512" xmlns="http://www.w3.org/2000/svg" xmlns:xlink="http://www.w3.org/1999/xlink"><linearGradient id="New_Gradient_Swatch_3" gradientUnits="userSpaceOnUse" x1="24.08" x2="24.08" y1="62.478" y2="2.866"><stop offset="0" stop-color="#006df0"/><stop offset="1" stop-color="#00e7f0"/></linearGradient><linearGradient id="New_Gradient_Swatch_3-2" x1="32" x2="32" xlink:href="#New_Gradient_Swatch_3" y1="62.478" y2="2.866"/><linearGradient id="New_Gradient_Swatch_3-3" gradientTransform="matrix(.866 .5 -.5 .866 10.287 -6.89)" x1="18" x2="18" xlink:href="#New_Gradient_Swatch_3" y1="62.478" y2="2.866"/><linearGradient id="New_Gradient_Swatch_3-4" gradientTransform="matrix(.5 .866 -.866 .5 26.392 6.288)" x1="7.751" x2="7.751" xlink:href="#New_Gradient_Swatch_3" y1="62.478" y2="2.866"/><linearGradient id="New_Gradient_Swatch_3-5" gradientTransform="matrix(.866 .5 -.5 .866 20.531 -24.638)" x1="56.249" x2="56.249" xlink:href="#New_Gradient_Swatch_3" y1="62.478" y2="2.866"/><linearGradient id="New_Gradient_Swatch_3-6" gradientTransform="matrix(.5 .866 -.866 .5 36.645 -31.962)" x1="46" x2="46" xlink:href="#New_Gradient_Swatch_3" y1="62.478" y2="2.866"/><linearGradient id="New_Gradient_Swatch_3-8" x1="18.557" x2="18.557" xlink:href="#New_Gradient_Swatch_3" y1="62.478" y2="2.866"/><path d="m23.7 32.511-1.109-1.664a16.977 16.977 0 0 1 2.119-1.2l.859 1.806a15.008 15.008 0 0 0 -1.869 1.058z" fill="url(#New_Gradient_Swatch_3)"/><path d="m31 6h2v12h-2z" fill="url(#New_Gradient_Swatch_3-2)"/><path d="m17 9.751h2v12h-2z" fill="url(#New_Gradient_Swatch_3-3)" transform="matrix(.866 -.5 .5 .866 -5.464 11.11)"/><path d="m6.751 20h2v12h-2z" fill="url(#New_Gradient_Swatch_3-4)" transform="matrix(.5 -.866 .866 .5 -18.641 19.713)"/><path d="m50.249 25h12v2h-12z" fill="url(#New_Gradient_Swatch_3-5)" transform="matrix(.866 -.5 .5 .866 -5.465 31.602)"/><path d="m40 14.751h12v2h-12z" fill="url(#New_Gradient_Swatch_3-6)" transform="matrix(.5 -.866 .866 .5 9.362 47.716)"/><path d="m58 54h-5v-9a21 21 0 0 0 -42 0v9h-5a4 4 0 0 0 0 8h52a4 4 0 0 0 0-8zm-45-9a19 19 0 0 1 38 0v9h-38zm45 15h-52a2 2 0 0 1 0-4h52a2 2 0 0 1 0 4z" fill="url(#New_Gradient_Swatch_3-2)"/><path d="m15 45v5h2v-5a15.008 15.008 0 0 1 5.114-11.271l-1.32-1.5a17.011 17.011 0 0 0 -5.794 12.771z" fill="url(#New_Gradient_Swatch_3-8)"/><path d="m39 38h-4v-4a2 2 0 0 0 -2-2h-2a2 2 0 0 0 -2 2v4h-4a2 2 0 0 0 -2 2v2a2 2 0 0 0 2 2h4v4a2 2 0 0 0 2 2h2a2 2 0 0 0 2-2v-4h4a2 2 0 0 0 2-2v-2a2 2 0 0 0 -2-2zm0 4h-4a2 2 0 0 0 -2 2v4h-2v-4a2 2 0 0 0 -2-2h-4v-2h4a2 2 0 0 0 2-2v-4h2v4a2 2 0 0 0 2 2h4z" fill="url(#New_Gradient_Swatch_3-2)"/></svg>