<svg height="512" viewBox="0 0 64 64" width="512" xmlns="http://www.w3.org/2000/svg" xmlns:xlink="http://www.w3.org/1999/xlink"><linearGradient id="New_Gradient_Swatch_3" gradientUnits="userSpaceOnUse" x1="32" x2="32" y1="65.507" y2="1.161"><stop offset="0" stop-color="#006df0"/><stop offset="1" stop-color="#00e7f0"/></linearGradient><linearGradient id="New_Gradient_Swatch_3-4" gradientTransform="matrix(.707 .707 -.707 .707 13.615 -5.64)" x1="13.615" x2="13.615" xlink:href="#New_Gradient_Swatch_3" y1="65.507" y2="1.161"/><linearGradient id="New_Gradient_Swatch_3-5" gradientTransform="matrix(.707 .707 -.707 .707 39.615 5.13)" x1="13.615" x2="13.615" xlink:href="#New_Gradient_Swatch_3" y1="65.507" y2="1.161"/><linearGradient id="New_Gradient_Swatch_3-7" gradientTransform="matrix(.707 .707 -.707 .707 50.385 -20.87)" x1="50.385" x2="50.385" xlink:href="#New_Gradient_Swatch_3" y1="65.507" y2="1.161"/><linearGradient id="New_Gradient_Swatch_3-8" gradientTransform="matrix(.707 .707 -.707 .707 24.385 -31.64)" x1="50.385" x2="50.385" xlink:href="#New_Gradient_Swatch_3" y1="65.507" y2="1.161"/><g fill="url(#New_Gradient_Swatch_3)"><path d="m32 48c-9.617 0-28.8-14.585-29.607-15.206l-1.039-.794 1.039-.794c.807-.621 19.99-15.206 29.607-15.206s28.8 14.585 29.607 15.206l1.039.794-1.039.794c-.807.621-19.99 15.206-29.607 15.206zm-27.326-16c4.182 3.073 19.601 14 27.326 14s23.143-10.926 27.326-14c-4.182-3.073-19.601-14-27.326-14s-23.143 10.926-27.326 14z"/><path d="m32 45a13 13 0 1 1 13-13 13.015 13.015 0 0 1 -13 13zm0-24a11 11 0 1 0 11 11 11.013 11.013 0 0 0 -11-11z"/><path d="m31 2h2v8h-2z"/></g><path d="m12.615 9.615h2v8.001h-2z" fill="url(#New_Gradient_Swatch_3-4)" transform="matrix(.707 -.707 .707 .707 -5.64 13.615)"/><path d="m9.615 49.385h8.001v2h-8.001z" fill="url(#New_Gradient_Swatch_3-5)" transform="matrix(.707 -.707 .707 .707 -31.64 24.385)"/><path d="m31 54h2v8h-2z" fill="url(#New_Gradient_Swatch_3)"/><path d="m49.385 46.385h2v8.001h-2z" fill="url(#New_Gradient_Swatch_3-7)" transform="matrix(.707 -.707 .707 .707 -20.87 50.385)"/><path d="m46.385 12.615h8.001v2h-8.001z" fill="url(#New_Gradient_Swatch_3-8)" transform="matrix(.707 -.707 .707 .707 5.13 39.615)"/><path d="m32 38a6 6 0 1 1 6-6 6.006 6.006 0 0 1 -6 6zm0-10a4 4 0 1 0 4 4 4 4 0 0 0 -4-4z" fill="url(#New_Gradient_Swatch_3)"/></svg>