<svg height="512" viewBox="0 0 64 64" width="512" xmlns="http://www.w3.org/2000/svg" xmlns:xlink="http://www.w3.org/1999/xlink"><linearGradient id="New_Gradient_Swatch_3" gradientUnits="userSpaceOnUse" x1="32" x2="32" y1="64.471" y2="-2.276"><stop offset="0" stop-color="#006df0"/><stop offset="1" stop-color="#00e7f0"/></linearGradient><linearGradient id="New_Gradient_Swatch_3-4" x1="50.5" x2="50.5" xlink:href="#New_Gradient_Swatch_3" y1="64.471" y2="-2.276"/><linearGradient id="New_Gradient_Swatch_3-5" x1="13.5" x2="13.5" xlink:href="#New_Gradient_Swatch_3" y1="64.471" y2="-2.276"/><g id="First_aid_kit" data-name="First aid kit"><g fill="url(#New_Gradient_Swatch_3)"><path d="m57 14h-14v-9a3 3 0 0 0 -3-3h-16a3 3 0 0 0 -3 3v9h-14a5.006 5.006 0 0 0 -5 5v10a5.009 5.009 0 0 0 4 4.9v23.1a5.006 5.006 0 0 0 5 5h42a5.006 5.006 0 0 0 5-5v-23.1a5.009 5.009 0 0 0 4-4.9v-10a5.006 5.006 0 0 0 -5-5zm-34-9a1 1 0 0 1 1-1h16a1 1 0 0 1 1 1v1h-18zm0 3h18v6h-18zm33 49a3 3 0 0 1 -3 3h-42a3 3 0 0 1 -3-3v-23h8v1a3 3 0 0 0 6 0v-1h20v1a3 3 0 0 0 6 0v-1h8zm-38-22v-4a1 1 0 0 1 2 0v4a1 1 0 0 1 -2 0zm26 0v-4a1 1 0 0 1 2 0v4a1 1 0 0 1 -2 0zm16-6a3 3 0 0 1 -3 3h-9v-1a3 3 0 0 0 -6 0v1h-20v-1a3 3 0 0 0 -6 0v1h-9a3 3 0 0 1 -3-3v-10a3 3 0 0 1 3-3h50a3 3 0 0 1 3 3z"/><path d="m24 28h16v2h-16z"/><path d="m39 44h-4v-4a2 2 0 0 0 -2-2h-2a2 2 0 0 0 -2 2v4h-4a2 2 0 0 0 -2 2v2a2 2 0 0 0 2 2h4v4a2 2 0 0 0 2 2h2a2 2 0 0 0 2-2v-4h4a2 2 0 0 0 2-2v-2a2 2 0 0 0 -2-2zm0 4h-4a2 2 0 0 0 -2 2v4h-2v-4a2 2 0 0 0 -2-2h-4v-2h4a2 2 0 0 0 2-2v-4h2v4a2 2 0 0 0 2 2h4z"/></g><path d="m47 56v2h4a3 3 0 0 0 3-3v-4h-2v4a1 1 0 0 1 -1 1z" fill="url(#New_Gradient_Swatch_3-4)"/><path d="m12 55v-4h-2v4a3 3 0 0 0 3 3h4v-2h-4a1 1 0 0 1 -1-1z" fill="url(#New_Gradient_Swatch_3-5)"/></g></svg>