<svg height="512" viewBox="0 0 64 64" width="512" xmlns="http://www.w3.org/2000/svg" xmlns:xlink="http://www.w3.org/1999/xlink"><linearGradient id="New_Gradient_Swatch_3" gradientUnits="userSpaceOnUse" x1="32" x2="32" y1="64.397" y2="2.433"><stop offset="0" stop-color="#006df0"/><stop offset="1" stop-color="#00e7f0"/></linearGradient><linearGradient id="New_Gradient_Swatch_3-4" x1="27" x2="27" xlink:href="#New_Gradient_Swatch_3" y1="64.397" y2="2.433"/><linearGradient id="New_Gradient_Swatch_3-5" x1="35" x2="35" xlink:href="#New_Gradient_Swatch_3" y1="64.397" y2="2.433"/><linearGradient id="New_Gradient_Swatch_3-6" x1="23" x2="23" xlink:href="#New_Gradient_Swatch_3" y1="64.397" y2="2.433"/><linearGradient id="New_Gradient_Swatch_3-7" x1="31" x2="31" xlink:href="#New_Gradient_Swatch_3" y1="64.397" y2="2.433"/><linearGradient id="New_Gradient_Swatch_3-8" x1="39" x2="39" xlink:href="#New_Gradient_Swatch_3" y1="64.397" y2="2.433"/><g fill="url(#New_Gradient_Swatch_3)"><path d="m48.906 62h-33.812a7 7 0 0 1 -5.3-11.57l15-17.394a5 5 0 0 0 1.206-3.265v-20.883a.889.889 0 0 0 -.888-.888 3.077 3.077 0 0 1 -3.1-2.739 2.966 2.966 0 0 1 .881-2.387 2.926 2.926 0 0 1 2.107-.874h13.888a3.079 3.079 0 0 1 3.1 2.738 2.966 2.966 0 0 1 -.881 2.387 2.928 2.928 0 0 1 -2.107.875h-.112a.889.889 0 0 0 -.888.888v20.883a5 5 0 0 0 1.213 3.265l14.995 17.394a7 7 0 0 1 -5.302 11.57zm-23.906-58a.957.957 0 0 0 -.694.288.976.976 0 0 0 -.3.8 1.082 1.082 0 0 0 1.106.912 2.891 2.891 0 0 1 2.888 2.888v20.883a7 7 0 0 1 -1.7 4.57l-14.993 17.394a5 5 0 0 0 3.787 8.265h33.812a5 5 0 0 0 3.787-8.265l-14.993-17.394a7 7 0 0 1 -1.7-4.57v-20.883a2.891 2.891 0 0 1 2.888-2.888h.112a.957.957 0 0 0 .694-.288.977.977 0 0 0 .3-.8 1.082 1.082 0 0 0 -1.106-.912z"/><path d="m48.91 58h-33.82a3.006 3.006 0 0 1 -2.267-4.964l12.959-15.036h12.436l12.959 15.037a2.929 2.929 0 0 1 .452 3.208 2.923 2.923 0 0 1 -2.719 1.755zm-22.21-18-12.363 14.343a1.006 1.006 0 0 0 .753 1.657h33.82a.925.925 0 0 0 .9-.585.933.933 0 0 0 -.148-1.07l-12.362-14.345z"/><path d="m32 37a3 3 0 1 1 3-3 3 3 0 0 1 -3 3zm0-4a1 1 0 1 0 1 1 1 1 0 0 0 -1-1z"/></g><path d="m27 50a3 3 0 1 1 3-3 3 3 0 0 1 -3 3zm0-4a1 1 0 1 0 1 1 1 1 0 0 0 -1-1z" fill="url(#New_Gradient_Swatch_3-4)"/><path d="m34 43h2v2h-2z" fill="url(#New_Gradient_Swatch_3-5)"/><path d="m22 52h2v2h-2z" fill="url(#New_Gradient_Swatch_3-6)"/><path d="m30 51h2v2h-2z" fill="url(#New_Gradient_Swatch_3-7)"/><path d="m39 55c-.112 0-.225-.005-.339-.014a4 4 0 1 1 .339.014zm0-6a2 2 0 1 0 .169.007c-.058-.007-.114-.007-.169-.007z" fill="url(#New_Gradient_Swatch_3-8)"/></svg>