<?xml version="1.0"?>
<svg xmlns="http://www.w3.org/2000/svg" xmlns:xlink="http://www.w3.org/1999/xlink" viewBox="0 0 64 64" width="512" height="512"><defs><linearGradient id="New_Gradient_Swatch_3" x1="32" y1="65.433" x2="32" y2="-0.701" gradientUnits="userSpaceOnUse"><stop offset="0" stop-color="#006df0"/><stop offset="1" stop-color="#00e7f0"/></linearGradient><linearGradient id="New_Gradient_Swatch_3-2" x1="32.002" y1="65.433" x2="32.002" y2="-0.701" xlink:href="#New_Gradient_Swatch_3"/></defs><g id="Hearth_config" data-name="Hearth config"><path d="M34,43H30a2,2,0,0,1-2-2V38.419a13.379,13.379,0,0,1-2.658-1.1l-1.823,1.831a2.056,2.056,0,0,1-2.836,0l-2.83-2.83a2.008,2.008,0,0,1,0-2.834l1.834-1.825A13.445,13.445,0,0,1,18.58,29H16a2,2,0,0,1-2-2V23a2,2,0,0,1,2-2h2.58a13.445,13.445,0,0,1,1.106-2.658l-1.832-1.823a2.007,2.007,0,0,1,0-2.836l2.83-2.83a2.055,2.055,0,0,1,2.835,0l1.824,1.831A13.379,13.379,0,0,1,28,11.581V9a2,2,0,0,1,2-2h4a2,2,0,0,1,2,2v2.581a13.379,13.379,0,0,1,2.658,1.1l1.823-1.831a2.057,2.057,0,0,1,2.836,0l2.83,2.83a2.006,2.006,0,0,1,0,2.834l-1.834,1.825A13.445,13.445,0,0,1,45.42,21H48a2,2,0,0,1,2,2v4a2,2,0,0,1-2,2H45.42a13.445,13.445,0,0,1-1.106,2.658l1.832,1.823a2.008,2.008,0,0,1,0,2.835l-2.831,2.831a2.055,2.055,0,0,1-2.835,0l-1.824-1.831A13.379,13.379,0,0,1,36,38.419V41A2,2,0,0,1,34,43Zm-8.965-8.212.677.426a11.477,11.477,0,0,0,3.516,1.462l.772.18V41h4V36.856l.772-.18a11.477,11.477,0,0,0,3.516-1.462l.677-.426L41.9,37.734,44.733,34.9l-2.946-2.939.427-.677a11.477,11.477,0,0,0,1.463-3.515l.18-.772H48V23l-4.143,0-.18-.772a11.477,11.477,0,0,0-1.463-3.515l-.427-.677L44.735,15.1,41.9,12.267l-2.938,2.945-.677-.426a11.477,11.477,0,0,0-3.516-1.462L34,13.144V9H30v4.144l-.772.18a11.477,11.477,0,0,0-3.516,1.462l-.677.426L22.1,12.266,19.267,15.1l2.946,2.939-.427.677a11.477,11.477,0,0,0-1.463,3.515l-.18.772H16v4h4.143l.18.772a11.477,11.477,0,0,0,1.463,3.515l.427.677L19.265,34.9,22.1,37.733ZM48,23h0" style="fill:url(#New_Gradient_Swatch_3)"/><path d="M47.339,7.861A23,23,0,0,0,9.12,22.622,23.066,23.066,0,0,0,22.454,45.931.968.968,0,0,1,23,46.82V47a3,3,0,0,0,2,2.816V56a2.994,2.994,0,0,0,2.094,2.845A4,4,0,0,0,31,62h2a4,4,0,0,0,3.906-3.155A2.994,2.994,0,0,0,39,56V49.816A3,3,0,0,0,41,47v-.181a.975.975,0,0,1,.552-.891A23.006,23.006,0,0,0,47.339,7.861ZM37,50.985H27V50H37Zm-10,2H37v1H27ZM33,60H31a2,2,0,0,1-1.731-1h5.462A2,2,0,0,1,33,60Zm3-3H28a1,1,0,0,1-1-1v-.015H37V56A1,1,0,0,1,36,57Zm4.72-12.89A2.975,2.975,0,0,0,39,46.819V47a1,1,0,0,1-1,1H26a1,1,0,0,1-1-1v-.18a2.974,2.974,0,0,0-1.715-2.709A21,21,0,0,1,29.6,4.133,21.849,21.849,0,0,1,32.03,4,20.753,20.753,0,0,1,46.005,9.352,21.006,21.006,0,0,1,40.72,44.11Z" style="fill:url(#New_Gradient_Swatch_3-2)"/><path d="M39,22H35V18a2,2,0,0,0-2-2H31a2,2,0,0,0-2,2v4H25a2,2,0,0,0-2,2v2a2,2,0,0,0,2,2h4v4a2,2,0,0,0,2,2h2a2,2,0,0,0,2-2V28h4a2,2,0,0,0,2-2V24A2,2,0,0,0,39,22Zm0,4H35a2,2,0,0,0-2,2v4H31V28a2,2,0,0,0-2-2H25V24h4a2,2,0,0,0,2-2V18h2v4a2,2,0,0,0,2,2h4Z" style="fill:url(#New_Gradient_Swatch_3)"/></g></svg>
