<svg height="512" viewBox="0 0 64 64" width="512" xmlns="http://www.w3.org/2000/svg" xmlns:xlink="http://www.w3.org/1999/xlink"><linearGradient id="New_Gradient_Swatch_3" gradientUnits="userSpaceOnUse" x1="32" x2="32" y1="66.906" y2="-1.569"><stop offset="0" stop-color="#006df0"/><stop offset="1" stop-color="#00e7f0"/></linearGradient><linearGradient id="New_Gradient_Swatch_3-4" x1="22" x2="22" xlink:href="#New_Gradient_Swatch_3" y1="66.906" y2="-1.569"/><linearGradient id="New_Gradient_Swatch_3-5" x1="34" x2="34" xlink:href="#New_Gradient_Swatch_3" y1="66.906" y2="-1.569"/><g id="Hearth_report" data-name="Hearth report"><g fill="url(#New_Gradient_Swatch_3)"><path d="m50 8h-8.184a3 3 0 0 0 -2.816-2h-1.43a.95.95 0 0 1 -.861-.684 5 5 0 0 0 -9.418 0 .952.952 0 0 1 -.861.684h-1.43a3 3 0 0 0 -2.816 2h-8.184a5.006 5.006 0 0 0 -5 5v44a5.006 5.006 0 0 0 5 5h36a5.006 5.006 0 0 0 5-5v-44a5.006 5.006 0 0 0 -5-5zm-26 1a1 1 0 0 1 1-1h1.43a2.924 2.924 0 0 0 2.744-2.011 3 3 0 0 1 5.652 0 2.926 2.926 0 0 0 2.744 2.011h1.43a1 1 0 0 1 1 1v3h-16zm-9 1h7v4h20v-4h7v46h-27v-8h-7zm5 40v4.339l-3.8-4.339zm33 7a3 3 0 0 1 -3 3h-36a3 3 0 0 1 -3-3v-44a3 3 0 0 1 2-2.816v39.192l7.546 8.624h30.454v-47.816a3 3 0 0 1 2 2.816z"/><path d="m31 22h2v-2h2v-2h-2v-2h-2v2h-2v2h2z"/><path d="m19 30h26v-6h-26zm2-4h22v2h-22z"/></g><path d="m21 32h2v2h-2z" fill="url(#New_Gradient_Swatch_3-4)"/><path d="m25 32h18v2h-18z" fill="url(#New_Gradient_Swatch_3-5)"/><path d="m21 36h2v2h-2z" fill="url(#New_Gradient_Swatch_3-4)"/><path d="m25 36h18v2h-18z" fill="url(#New_Gradient_Swatch_3-5)"/><path d="m21 40h2v2h-2z" fill="url(#New_Gradient_Swatch_3-4)"/><path d="m25 40h18v2h-18z" fill="url(#New_Gradient_Swatch_3-5)"/><path d="m25 54h18v-8h-18zm2-6h14v4h-14z" fill="url(#New_Gradient_Swatch_3-5)"/></g></svg>