<svg height="512" viewBox="0 0 64 64" width="512" xmlns="http://www.w3.org/2000/svg" xmlns:xlink="http://www.w3.org/1999/xlink"><linearGradient id="New_Gradient_Swatch_3" gradientUnits="userSpaceOnUse" x1="33.417" x2="33.417" y1="64.104" y2="4.457"><stop offset="0" stop-color="#006df0"/><stop offset="1" stop-color="#00e7f0"/></linearGradient><linearGradient id="New_Gradient_Swatch_3-2" x1="32" x2="32" xlink:href="#New_Gradient_Swatch_3" y1="64.104" y2="4.457"/><path d="m42 62h-25v-18.243a2.979 2.979 0 0 0 -.908-2.14 23 23 0 0 1 16.746-39.6c12.195.432 22.12 10.937 22.162 23.433l2.811 18.25a2 2 0 0 1 -1.977 2.3h-4.834a1 1 0 0 0 -1 1v3a3 3 0 0 1 -3 3h-4a1 1 0 0 0 -1 1zm-23-2h21v-6a3 3 0 0 1 3-3h4a1 1 0 0 0 1-1v-3a3 3 0 0 1 3-3h4.834l-2.834-18.473c0-11.465-9.076-21.116-20.233-21.513a21 21 0 0 0 -15.29 36.16 4.99 4.99 0 0 1 1.523 3.583z" fill="url(#New_Gradient_Swatch_3)"/><g fill="url(#New_Gradient_Swatch_3-2)"><path d="m39 21h-4v-4a2 2 0 0 0 -2-2h-2a2 2 0 0 0 -2 2v4h-4a2 2 0 0 0 -2 2v2a2 2 0 0 0 2 2h4v4a2 2 0 0 0 2 2h2a2 2 0 0 0 2-2v-4h4a2 2 0 0 0 2-2v-2a2 2 0 0 0 -2-2zm0 4h-4a2 2 0 0 0 -2 2v4h-2v-4a2 2 0 0 0 -2-2h-4v-2h4a2 2 0 0 0 2-2v-4h2v4a2 2 0 0 0 2 2h4z"/><path d="m32 38a14 14 0 1 1 14-14 14.015 14.015 0 0 1 -14 14zm0-26a12 12 0 1 0 12 12 12.013 12.013 0 0 0 -12-12z"/></g></svg>