<svg height="512" viewBox="0 0 64 64" width="512" xmlns="http://www.w3.org/2000/svg" xmlns:xlink="http://www.w3.org/1999/xlink"><linearGradient id="New_Gradient_Swatch_3" gradientUnits="userSpaceOnUse" x1="32" x2="32" y1="65.429" y2="-1.854"><stop offset="0" stop-color="#006df0"/><stop offset="1" stop-color="#00e7f0"/></linearGradient><g fill="url(#New_Gradient_Swatch_3)"><path d="m32 62a30 30 0 1 1 30-30 30.034 30.034 0 0 1 -30 30zm0-58a28 28 0 1 0 28 28 28.032 28.032 0 0 0 -28-28z"/><path d="m48 25h-8a1 1 0 0 1 -1-1v-8a3 3 0 0 0 -3-3h-8a3 3 0 0 0 -3 3v8a1 1 0 0 1 -1 1h-8a3 3 0 0 0 -3 3v8a3 3 0 0 0 3 3h8a1 1 0 0 1 1 1v8a3 3 0 0 0 3 3h8a3 3 0 0 0 3-3v-8a1 1 0 0 1 1-1h8a3 3 0 0 0 3-3v-8a3 3 0 0 0 -3-3zm1 11a1 1 0 0 1 -1 1h-8a3 3 0 0 0 -3 3v8a1 1 0 0 1 -1 1h-8a1 1 0 0 1 -1-1v-8a3 3 0 0 0 -3-3h-8a1 1 0 0 1 -1-1v-8a1 1 0 0 1 1-1h8a3 3 0 0 0 3-3v-8a1 1 0 0 1 1-1h8a1 1 0 0 1 1 1v8a3 3 0 0 0 3 3h8a1 1 0 0 1 1 1z"/></g></svg>