<svg height="512" viewBox="0 0 64 64" width="512" xmlns="http://www.w3.org/2000/svg" xmlns:xlink="http://www.w3.org/1999/xlink"><linearGradient id="New_Gradient_Swatch_3" gradientUnits="userSpaceOnUse" x1="32" x2="32" y1="67.793" y2=".498"><stop offset="0" stop-color="#006df0"/><stop offset="1" stop-color="#00e7f0"/></linearGradient><g fill="url(#New_Gradient_Swatch_3)"><path d="m32 62.118-8.97-4.485a28.843 28.843 0 0 1 -16.03-25.933v-21.7h1.645a36.9 36.9 0 0 0 20.409-6.235l2.946-1.965 2.982 1.988a36.889 36.889 0 0 0 20.524 6.212h1.494v21.7a28.843 28.843 0 0 1 -16.03 25.933zm-23-50.118v19.7a26.852 26.852 0 0 0 14.925 24.144l8.075 4.038 8.075-4.038a26.852 26.852 0 0 0 14.925-24.144v-19.7a38.879 38.879 0 0 1 -21.128-6.55l-1.872-1.25-1.835 1.228a38.879 38.879 0 0 1 -21.165 6.572z"/><path d="m50.124 15.665a42.6 42.6 0 0 1 -17.588-6.313l-.536-.338-.534.338a42.6 42.6 0 0 1 -17.592 6.311l-.874.109v15.928a22.876 22.876 0 0 0 12.714 20.567l6.286 3.143 6.286-3.143a22.876 22.876 0 0 0 12.714-20.567v-15.925zm-1.124 16.035a20.887 20.887 0 0 1 -11.608 18.778l-5.392 2.696-5.392-2.7a20.887 20.887 0 0 1 -11.608-18.774v-14.171a44.5 44.5 0 0 0 17-6.154 44.531 44.531 0 0 0 17 6.156z"/><path d="m42 27h-5v-5a2 2 0 0 0 -2-2h-6a2 2 0 0 0 -2 2v5h-5a2 2 0 0 0 -2 2v6a2 2 0 0 0 2 2h5v5a2 2 0 0 0 2 2h6a2 2 0 0 0 2-2v-5h5a2 2 0 0 0 2-2v-6a2 2 0 0 0 -2-2zm0 8h-5a2 2 0 0 0 -2 2v5h-6v-5a2 2 0 0 0 -2-2h-5v-6h5a2 2 0 0 0 2-2v-5h6v5a2 2 0 0 0 2 2h5z"/></g></svg>