<svg height="512" viewBox="0 0 64 64" width="512" xmlns="http://www.w3.org/2000/svg" xmlns:xlink="http://www.w3.org/1999/xlink"><linearGradient id="New_Gradient_Swatch_3" gradientUnits="userSpaceOnUse" x1="21" x2="21" y1="63.44" y2=".788"><stop offset="0" stop-color="#006df0"/><stop offset="1" stop-color="#00e7f0"/></linearGradient><linearGradient id="New_Gradient_Swatch_3-2" x1="12.98" x2="12.98" xlink:href="#New_Gradient_Swatch_3" y1="63.44" y2=".788"/><linearGradient id="New_Gradient_Swatch_3-3" x1="12" x2="12" xlink:href="#New_Gradient_Swatch_3" y1="63.44" y2=".788"/><linearGradient id="New_Gradient_Swatch_3-4" x1="47" x2="47" xlink:href="#New_Gradient_Swatch_3" y1="63.44" y2=".788"/><linearGradient id="New_Gradient_Swatch_3-5" x1="44.084" x2="44.084" xlink:href="#New_Gradient_Swatch_3" y1="63.44" y2=".788"/><path d="m29.118 18.555a3.1 3.1 0 0 1 -2.118-2.868v-1.687h3v-9a3 3 0 0 0 -3-3h-12a3 3 0 0 0 -3 3v9h3v1.687a3.1 3.1 0 0 1 -2.118 2.868 9.034 9.034 0 0 0 -5.882 8.445v35h28v-35a9.034 9.034 0 0 0 -5.882-8.445zm-15.118-13.555a1 1 0 0 1 1-1h12a1 1 0 0 1 1 1v3h-14zm0 7v-2h14v2zm19 20h-16v22h11v-2h-9v-18h14v2h-7v2h7v2h-7v2h7v2h-12v2h12v2h-12v2h12v2h-3v2h3v6h-24v-33a7.025 7.025 0 0 1 4.575-6.569 5.074 5.074 0 0 0 3.425-4.744v-1.687h8v1.687a5.074 5.074 0 0 0 3.425 4.744 7.025 7.025 0 0 1 4.575 6.569z" fill="url(#New_Gradient_Swatch_3)"/><path d="m11 27h2a3.012 3.012 0 0 1 1.959-2.816l-.692-1.876a5.017 5.017 0 0 0 -3.267 4.692z" fill="url(#New_Gradient_Swatch_3-2)"/><path d="m11 29h2v28h-2z" fill="url(#New_Gradient_Swatch_3-3)"/><path d="m56 15c0-4.566-3.711-13-9-13s-9 8.434-9 13a12.761 12.761 0 0 0 4.332 9.165 4.886 4.886 0 0 1 1.694 4.227l-2.562 27.535a5.56 5.56 0 1 0 11.072 0l-2.562-27.535a4.886 4.886 0 0 1 1.694-4.227 12.761 12.761 0 0 0 4.332-9.165zm-5.61 7.627a6.883 6.883 0 0 0 -2.406 5.951l2.561 27.535a3.559 3.559 0 1 1 -7.088 0l2.561-27.535a6.881 6.881 0 0 0 -2.407-5.951 10.626 10.626 0 0 1 -3.611-7.627c0-4.138 3.391-11 7-11s7 6.862 7 11a10.626 10.626 0 0 1 -3.61 7.627z" fill="url(#New_Gradient_Swatch_3-4)"/><path d="m44 15a13.632 13.632 0 0 1 1.827-5.491l-1.721-1.018a15.16 15.16 0 0 0 -2.106 6.509 8.742 8.742 0 0 0 2.89 6.09l1.279-1.538a6.742 6.742 0 0 1 -2.169-4.552z" fill="url(#New_Gradient_Swatch_3-5)"/></svg>