<svg height="512" viewBox="0 0 64 64" width="512" xmlns="http://www.w3.org/2000/svg" xmlns:xlink="http://www.w3.org/1999/xlink"><linearGradient id="New_Gradient_Swatch_3" gradientUnits="userSpaceOnUse" x1="32" x2="32" y1="66.167" y2=".599"><stop offset="0" stop-color="#006df0"/><stop offset="1" stop-color="#00e7f0"/></linearGradient><g fill="url(#New_Gradient_Swatch_3)"><path d="m53 60v-1a3 3 0 0 0 -3-3h-9.219l-.36-1.44a19.977 19.977 0 0 0 1.479-36.452l1.022-1.771 1.736 1 1-1.733-3.463-2 2-3.462 1.732 1 1-1.733-13.856-8-1 1.733 1.732 1-2 3.461-3.466-2-1 1.733 1.732 1-10 17.322-1.735-1-1 1.733 5.2 3-3 5.2 6.928 4 3-5.194 5.2 3 1-1.733-1.733-1 1.991-3.453c3.443 1.712 5.08 4.519 5.08 8.789a13.479 13.479 0 0 1 -1.734 6.941l-.485-1.941h-11.562l-.5 2h-13.719v2h13.219l-2 8h-9.219a3 3 0 0 0 -3 3v1h-3v2h48v-2zm-17.464-54.856 6.928 4-2 3.462-6.927-4zm-10.8 30.712-3.462-2 2-3.461 3.463 2zm-3.923-9.194 9.987-17.322 10.39 6-3.346 5.8a2.986 2.986 0 0 0 -2.91 5.031l-3.734 6.489zm16.187-1.662a1 1 0 1 1 1-1 1 1 0 0 1 -1 1zm5 14c0-4.942-2.063-8.464-6.085-10.524l.864-1.5c.074 0 .145.022.221.022a3 3 0 0 0 2.478-4.688l1.422-2.465a17.981 17.981 0 0 1 -.967 32.76l-1.024-4.094a14.81 14.81 0 0 0 3.091-9.511zm-14.219 7h8.438l2.5 10h-13.438zm23.219 14h-38v-1a1 1 0 0 1 1-1h36a1 1 0 0 1 1 1z"/><path d="m32 48a3 3 0 1 0 3 3 3 3 0 0 0 -3-3zm0 4a1 1 0 1 1 1-1 1 1 0 0 1 -1 1z"/></g></svg>