<svg height="512" viewBox="0 0 64 64" width="512" xmlns="http://www.w3.org/2000/svg" xmlns:xlink="http://www.w3.org/1999/xlink"><linearGradient id="New_Gradient_Swatch_3" gradientUnits="userSpaceOnUse" x1="14" x2="14" y1="66.906" y2="-3.968"><stop offset="0" stop-color="#006df0"/><stop offset="1" stop-color="#00e7f0"/></linearGradient><linearGradient id="New_Gradient_Swatch_3-2" x1="32" x2="32" xlink:href="#New_Gradient_Swatch_3" y1="66.906" y2="-3.968"/><linearGradient id="New_Gradient_Swatch_3-7" x1="12" x2="12" xlink:href="#New_Gradient_Swatch_3" y1="66.906" y2="-3.968"/><linearGradient id="New_Gradient_Swatch_3-8" x1="21.5" x2="21.5" xlink:href="#New_Gradient_Swatch_3" y1="66.906" y2="-3.968"/><linearGradient id="New_Gradient_Swatch_3-10" x1="44" x2="44" xlink:href="#New_Gradient_Swatch_3" y1="66.906" y2="-3.968"/><path d="m13 27h2v2h-2z" fill="url(#New_Gradient_Swatch_3)"/><path d="m17 27h30v2h-30z" fill="url(#New_Gradient_Swatch_3-2)"/><path d="m13 33h2v2h-2z" fill="url(#New_Gradient_Swatch_3)"/><path d="m17 33h30v2h-30z" fill="url(#New_Gradient_Swatch_3-2)"/><path d="m13 39h2v2h-2z" fill="url(#New_Gradient_Swatch_3)"/><path d="m17 39h30v2h-30z" fill="url(#New_Gradient_Swatch_3-2)"/><path d="m16 12a4 4 0 0 0 -4-4h-4v13h2v-5h1.382l2.723 5.447 1.79-.894-2.421-4.842a4 4 0 0 0 2.526-3.711zm-4 2h-2v-4h2a2 2 0 0 1 0 4z" fill="url(#New_Gradient_Swatch_3-7)"/><path d="m24.136 8.496-2.636 4.519-2.636-4.519-1.728 1.008 3.206 5.496-3.206 5.496 1.728 1.008 2.636-4.519 2.636 4.519 1.728-1.008-3.206-5.496 3.206-5.496z" fill="url(#New_Gradient_Swatch_3-8)"/><path d="m45.414 2h-43.414v55.425l5.149 4.964 4.149-4 4.148 4 4.142-4 4.143 4 4.144-4 4.143 4 4.144-4 4.141 4 4.14-4 4.143 4 4.138-4 4.141 4 5.135-4.965v-38.838zm.586 3.414 12.586 12.586h-12.586zm10.864 54.2-4.14-4-4.139 4-4.142-4-4.14 4-4.141-4-4.144 4-4.143-4-4.144 4-4.143-4-4.143 4-4.146-4-4.15 4-3.149-3.039v-52.575h40v16h16v36.576z" fill="url(#New_Gradient_Swatch_3-2)"/><path d="m32 50h24v2h-24z" fill="url(#New_Gradient_Swatch_3-10)"/></svg>