<svg height="512" viewBox="0 0 64 64" width="512" xmlns="http://www.w3.org/2000/svg" xmlns:xlink="http://www.w3.org/1999/xlink"><linearGradient id="New_Gradient_Swatch_3" gradientUnits="userSpaceOnUse" x1="32" x2="32" y1="62.85" y2="2.043"><stop offset="0" stop-color="#006df0"/><stop offset="1" stop-color="#00e7f0"/></linearGradient><linearGradient id="New_Gradient_Swatch_3-2" x1="44.02" x2="44.02" xlink:href="#New_Gradient_Swatch_3" y1="62.85" y2="2.043"/><linearGradient id="New_Gradient_Swatch_3-5" x1="22" x2="22" xlink:href="#New_Gradient_Swatch_3" y1="62.85" y2="2.043"/><linearGradient id="New_Gradient_Swatch_3-6" x1="29" x2="29" xlink:href="#New_Gradient_Swatch_3" y1="62.85" y2="2.043"/><g id="Phamacy-2" data-name="Phamacy"><path d="m44.118 20.555a3.1 3.1 0 0 1 -2.118-2.868v-3.687h3v-9a3 3 0 0 0 -3-3h-20a3 3 0 0 0 -3 3v9h3v3.687a3.1 3.1 0 0 1 -2.118 2.868 9.034 9.034 0 0 0 -5.882 8.445v33h36v-33a9.034 9.034 0 0 0 -5.882-8.445zm-17.118-10.555v2h-2v-2zm2 0h2v2h-2zm4 0h2v2h-2zm4 0h2v2h-2zm6 2h-2v-2h2zm-22-7a1 1 0 0 1 1-1h20a1 1 0 0 1 1 1v3h-22zm0 7v-2h2v2zm27 48h-32v-31a7.025 7.025 0 0 1 4.575-6.569 5.074 5.074 0 0 0 3.425-4.744v-3.687h16v3.687a5.076 5.076 0 0 0 3.426 4.744 7.028 7.028 0 0 1 4.574 6.569z" fill="url(#New_Gradient_Swatch_3)"/><path d="m42.731 24.307-.691 1.876a3.014 3.014 0 0 1 1.96 2.817h2a5.019 5.019 0 0 0 -3.269-4.693z" fill="url(#New_Gradient_Swatch_3-2)"/><path d="m18 55h28v-24h-28zm2-22h24v20h-24z" fill="url(#New_Gradient_Swatch_3)"/><path d="m39 40h-4v-4a2 2 0 0 0 -2-2h-2a2 2 0 0 0 -2 2v4h-4a2 2 0 0 0 -2 2v2a2 2 0 0 0 2 2h4v4a2 2 0 0 0 2 2h2a2 2 0 0 0 2-2v-4h4a2 2 0 0 0 2-2v-2a2 2 0 0 0 -2-2zm0 4h-4a2 2 0 0 0 -2 2v4h-2v-4a2 2 0 0 0 -2-2h-4v-2h4a2 2 0 0 0 2-2v-4h2v4a2 2 0 0 0 2 2h4z" fill="url(#New_Gradient_Swatch_3)"/><path d="m18 56h8v2h-8z" fill="url(#New_Gradient_Swatch_3-5)"/><path d="m28 56h2v2h-2z" fill="url(#New_Gradient_Swatch_3-6)"/></g></svg>