<svg height="512" viewBox="0 0 64 64" width="512" xmlns="http://www.w3.org/2000/svg" xmlns:xlink="http://www.w3.org/1999/xlink"><linearGradient id="New_Gradient_Swatch_3" gradientUnits="userSpaceOnUse" x1="32" x2="32" y1="65.726" y2="-2.729"><stop offset="0" stop-color="#006df0"/><stop offset="1" stop-color="#00e7f0"/></linearGradient><linearGradient id="New_Gradient_Swatch_3-6" x1="47" x2="47" xlink:href="#New_Gradient_Swatch_3" y1="65.726" y2="-2.729"/><linearGradient id="New_Gradient_Swatch_3-10" x1="17" x2="17" xlink:href="#New_Gradient_Swatch_3" y1="65.726" y2="-2.729"/><g fill="url(#New_Gradient_Swatch_3)"><path d="m57 2h-50a5.006 5.006 0 0 0 -5 5v50a5.006 5.006 0 0 0 5 5h50a5.006 5.006 0 0 0 5-5v-50a5.006 5.006 0 0 0 -5-5zm3 55a3 3 0 0 1 -3 3h-24v-6h-2v6h-24a3 3 0 0 1 -3-3v-50a3 3 0 0 1 3-3h24v6h2v-6h24a3 3 0 0 1 3 3z"/><path d="m31 14h2v6h-2z"/><path d="m31 24h2v6h-2z"/><path d="m31 34h2v6h-2z"/><path d="m31 44h2v6h-2z"/></g><path d="m52 20h-10a5 5 0 0 0 0 10h10a5 5 0 0 0 0-10zm-13 5a3 3 0 0 1 3-3h4v6h-4a3 3 0 0 1 -3-3zm13 3h-4v-6h4a3 3 0 0 1 0 6z" fill="url(#New_Gradient_Swatch_3-6)"/><path d="m52 7h-10a5 5 0 0 0 0 10h10a5 5 0 0 0 0-10zm-13 5a3 3 0 0 1 3-3h4v6h-4a3 3 0 0 1 -3-3zm13 3h-4v-6h4a3 3 0 0 1 0 6z" fill="url(#New_Gradient_Swatch_3-6)"/><path d="m52 34h-10a5 5 0 0 0 0 10h10a5 5 0 0 0 0-10zm-13 5a3 3 0 0 1 3-3h4v6h-4a3 3 0 0 1 -3-3zm13 3h-4v-6h4a3 3 0 0 1 0 6z" fill="url(#New_Gradient_Swatch_3-6)"/><path d="m52 47h-10a5 5 0 0 0 0 10h10a5 5 0 0 0 0-10zm-6 8h-4a3 3 0 0 1 0-6h4zm6 0h-4v-6h4a3 3 0 0 1 0 6z" fill="url(#New_Gradient_Swatch_3-6)"/><path d="m22 20h-10a5 5 0 0 0 0 10h10a5 5 0 0 0 0-10zm-13 5a3 3 0 0 1 3-3h4v6h-4a3 3 0 0 1 -3-3zm13 3h-4v-6h4a3 3 0 0 1 0 6z" fill="url(#New_Gradient_Swatch_3-10)"/><path d="m22 7h-10a5 5 0 0 0 0 10h10a5 5 0 0 0 0-10zm-6 8h-4a3 3 0 0 1 0-6h4zm6 0h-4v-6h4a3 3 0 0 1 0 6z" fill="url(#New_Gradient_Swatch_3-10)"/><path d="m22 34h-10a5 5 0 0 0 0 10h10a5 5 0 0 0 0-10zm-13 5a3 3 0 0 1 3-3h4v6h-4a3 3 0 0 1 -3-3zm13 3h-4v-6h4a3 3 0 0 1 0 6z" fill="url(#New_Gradient_Swatch_3-10)"/><path d="m22 47h-10a5 5 0 0 0 0 10h10a5 5 0 0 0 0-10zm-13 5a3 3 0 0 1 3-3h4v6h-4a3 3 0 0 1 -3-3zm13 3h-4v-6h4a3 3 0 0 1 0 6z" fill="url(#New_Gradient_Swatch_3-10)"/></svg>