<svg height="512" viewBox="0 0 64 64" width="512" xmlns="http://www.w3.org/2000/svg" xmlns:xlink="http://www.w3.org/1999/xlink"><linearGradient id="New_Gradient_Swatch_3" gradientUnits="userSpaceOnUse" x1="32" x2="32" y1="61.228" y2="-1.925"><stop offset="0" stop-color="#006df0"/><stop offset="1" stop-color="#00e7f0"/></linearGradient><linearGradient id="New_Gradient_Swatch_3-3" x1="39" x2="39" xlink:href="#New_Gradient_Swatch_3" y1="61.228" y2="-1.925"/><linearGradient id="New_Gradient_Swatch_3-4" x1="37" x2="37" xlink:href="#New_Gradient_Swatch_3" y1="61.228" y2="-1.925"/><linearGradient id="New_Gradient_Swatch_3-7" x1="22.5" x2="22.5" xlink:href="#New_Gradient_Swatch_3" y1="61.228" y2="-1.925"/><linearGradient id="New_Gradient_Swatch_3-8" x1="30.5" x2="30.5" xlink:href="#New_Gradient_Swatch_3" y1="61.228" y2="-1.925"/><linearGradient id="New_Gradient_Swatch_3-9" x1="23" x2="23" xlink:href="#New_Gradient_Swatch_3" y1="61.228" y2="-1.925"/><linearGradient id="New_Gradient_Swatch_3-11" x1="30" x2="30" xlink:href="#New_Gradient_Swatch_3" y1="61.228" y2="-1.925"/><path d="m57 9h-5v2h5a3 3 0 0 1 3 3v28h-9v-30.414l-8.586-8.586h-29.414v39h-9v-29c0-.495 0-2 3-2h4v-2h-4c-3.131 0-5 1.5-5 4v34a5.006 5.006 0 0 0 5 5h17v4h-5a3 3 0 0 0 -3 3v1h-2v2h36v-2h-2v-1a3 3 0 0 0 -3-3h-5v-4h17a5.006 5.006 0 0 0 5-5v-33a5.006 5.006 0 0 0 -5-5zm-14-2.586 4.586 4.586h-4.586zm-28-1.414h26v8h8v29h-34zm30 53a1 1 0 0 1 1 1v1h-28v-1a1 1 0 0 1 1-1zm-19-2v-4h12v4zm34-9a3 3 0 0 1 -3 3h-50a3 3 0 0 1 -3-3v-3h56z" fill="url(#New_Gradient_Swatch_3)"/><path d="m35 47a3 3 0 1 0 -3 3 3 3 0 0 0 3-3zm-3 1a1 1 0 1 1 1-1 1 1 0 0 1 -1 1z" fill="url(#New_Gradient_Swatch_3)"/><path d="m33 26h12v2h-12z" fill="url(#New_Gradient_Swatch_3-3)"/><path d="m29 30h16v2h-16z" fill="url(#New_Gradient_Swatch_3-4)"/><path d="m33 34h12v2h-12z" fill="url(#New_Gradient_Swatch_3-3)"/><path d="m29 38h16v2h-16z" fill="url(#New_Gradient_Swatch_3-4)"/><path d="m23 9h-4v11h2v-4.2l3.168 4.752 1.664-1.11-2.964-4.442h.132a3 3 0 0 0 0-6zm0 4h-2v-2h2a1 1 0 0 1 0 2z" fill="url(#New_Gradient_Swatch_3-7)"/><path d="m33.156 20.537 1.688-1.074-3.158-4.963 3.158-4.963-1.688-1.074-2.656 4.174-2.656-4.174-1.688 1.074 3.158 4.963-3.158 4.963 1.688 1.074 2.656-4.174z" fill="url(#New_Gradient_Swatch_3-8)"/><path d="m20 32h6v-6h-6zm2-4h2v2h-2z" fill="url(#New_Gradient_Swatch_3-9)"/><path d="m20 40h6v-6h-6zm2-4h2v2h-2z" fill="url(#New_Gradient_Swatch_3-9)"/><g fill="url(#New_Gradient_Swatch_3-11)"><path d="m29 26h2v2h-2z"/><path d="m29 34h2v2h-2z"/></g></svg>