<svg height="512" viewBox="0 0 64 64" width="512" xmlns="http://www.w3.org/2000/svg" xmlns:xlink="http://www.w3.org/1999/xlink"><linearGradient id="New_Gradient_Swatch_3" gradientUnits="userSpaceOnUse" x1="27.093" x2="27.093" y1="72.588" y2=".535"><stop offset="0" stop-color="#006df0"/><stop offset="1" stop-color="#00e7f0"/></linearGradient><linearGradient id="New_Gradient_Swatch_3-2" x1="50" x2="50" xlink:href="#New_Gradient_Swatch_3" y1="72.588" y2=".535"/><linearGradient id="New_Gradient_Swatch_3-4" x1="54" x2="54" xlink:href="#New_Gradient_Swatch_3" y1="72.588" y2=".535"/><linearGradient id="New_Gradient_Swatch_3-5" x1="47" x2="47" xlink:href="#New_Gradient_Swatch_3" y1="72.588" y2=".535"/><linearGradient id="New_Gradient_Swatch_3-6" x1="59.5" x2="59.5" xlink:href="#New_Gradient_Swatch_3" y1="72.588" y2=".535"/><linearGradient id="New_Gradient_Swatch_3-7" gradientTransform="matrix(.866 .5 -.5 .866 27.868 -20.975)" x1="53.062" x2="53.062" xlink:href="#New_Gradient_Swatch_3" y1="72.588" y2=".535"/><linearGradient id="New_Gradient_Swatch_3-8" gradientTransform="matrix(.866 .5 -.5 .866 27.116 -23.718)" x1="57.825" x2="57.825" xlink:href="#New_Gradient_Swatch_3" y1="72.588" y2=".535"/><linearGradient id="New_Gradient_Swatch_3-9" gradientTransform="matrix(.5 .866 -.866 .5 68.523 -21.705)" x1="53.062" x2="53.062" xlink:href="#New_Gradient_Swatch_3" y1="72.588" y2=".535"/><linearGradient id="New_Gradient_Swatch_3-10" gradientTransform="matrix(.5 .866 -.866 .5 73.296 -24.453)" x1="57.825" x2="57.825" xlink:href="#New_Gradient_Swatch_3" y1="72.588" y2=".535"/><path d="m52.006 34.963-3.423-8.233a7.8 7.8 0 0 1 -.62-2.529c-.663-12.023-10.385-21.768-22.125-22.186a23 23 0 0 0 -16.747 39.6 2.989 2.989 0 0 1 .909 2.142v18.243h24v-7h2.192a4.99 4.99 0 0 0 4.161-2.227l2.447-3.664a2 2 0 0 0 -1.668-3.109h-3.651l-2.4-3h9.919v-4h4.193a3 3 0 0 0 2.813-4.037zm-2 1.618a.992.992 0 0 1 -.815.419h-4.191a2 2 0 0 0 -2 2v2h-7.919a2 2 0 0 0 -1.562 3.25l2.4 3a1.988 1.988 0 0 0 1.561.75h3.652l-2.444 3.665a3 3 0 0 1 -2.496 1.335h-2.192a2 2 0 0 0 -2 2v5h-20v-16.244a5 5 0 0 0 -1.524-3.584 21.006 21.006 0 0 1 -.057-30.285 20.782 20.782 0 0 1 15.349-5.873c10.715.381 19.588 9.3 20.2 20.3a9.745 9.745 0 0 0 .769 3.186l3.4 8.175a.994.994 0 0 1 -.129.906z" fill="url(#New_Gradient_Swatch_3)"/><path d="m49 42h2v2h-2z" fill="url(#New_Gradient_Swatch_3-2)"/><path d="m49 46h2v2h-2z" fill="url(#New_Gradient_Swatch_3-2)"/><path d="m53 44h2v2h-2z" fill="url(#New_Gradient_Swatch_3-4)"/><path d="m46 44h2v2h-2z" fill="url(#New_Gradient_Swatch_3-5)"/><path d="m57 44h5v2h-5z" fill="url(#New_Gradient_Swatch_3-6)"/><path d="m52.062 40.5h1.999v1.999h-1.999z" fill="url(#New_Gradient_Swatch_3-7)" transform="matrix(.866 -.5 .5 .866 -13.642 32.101)"/><path d="m55.325 37.75h5v2h-5z" fill="url(#New_Gradient_Swatch_3-8)" transform="matrix(.866 -.5 .5 .866 -11.627 34.098)"/><path d="m52.062 47.5h1.999v1.999h-1.999z" fill="url(#New_Gradient_Swatch_3-9)" transform="matrix(.5 -.866 .866 .5 -15.475 70.193)"/><path d="m56.825 48.75h2v5h-2z" fill="url(#New_Gradient_Swatch_3-10)" transform="matrix(.5 -.866 .866 .5 -15.471 75.703)"/></svg>