<svg height="512" viewBox="0 0 64 64" width="512" xmlns="http://www.w3.org/2000/svg" xmlns:xlink="http://www.w3.org/1999/xlink"><linearGradient id="New_Gradient_Swatch_3" gradientUnits="userSpaceOnUse" x1="13" x2="13" y1="65.284" y2="2.044"><stop offset="0" stop-color="#006df0"/><stop offset="1" stop-color="#00e7f0"/></linearGradient><linearGradient id="New_Gradient_Swatch_3-2" x1="24.5" x2="24.5" xlink:href="#New_Gradient_Swatch_3" y1="65.284" y2="2.044"/><linearGradient id="New_Gradient_Swatch_3-3" x1="10.5" x2="10.5" xlink:href="#New_Gradient_Swatch_3" y1="65.284" y2="2.044"/><linearGradient id="New_Gradient_Swatch_3-4" x1="52.5" x2="52.5" xlink:href="#New_Gradient_Swatch_3" y1="65.284" y2="2.044"/><linearGradient id="New_Gradient_Swatch_3-5" x1="60" x2="60" xlink:href="#New_Gradient_Swatch_3" y1="65.284" y2="2.044"/><linearGradient id="New_Gradient_Swatch_3-6" x1="53.5" x2="53.5" xlink:href="#New_Gradient_Swatch_3" y1="65.284" y2="2.044"/><linearGradient id="New_Gradient_Swatch_3-7" x1="61" x2="61" xlink:href="#New_Gradient_Swatch_3" y1="65.284" y2="2.044"/><linearGradient id="New_Gradient_Swatch_3-8" x1="51.5" x2="51.5" xlink:href="#New_Gradient_Swatch_3" y1="65.284" y2="2.044"/><linearGradient id="New_Gradient_Swatch_3-9" x1="57" x2="57" xlink:href="#New_Gradient_Swatch_3" y1="65.284" y2="2.044"/><linearGradient id="New_Gradient_Swatch_3-11" x1="50" x2="50" xlink:href="#New_Gradient_Swatch_3" y1="65.284" y2="2.044"/><linearGradient id="New_Gradient_Swatch_3-12" x1="55.5" x2="55.5" xlink:href="#New_Gradient_Swatch_3" y1="65.284" y2="2.044"/><linearGradient id="New_Gradient_Swatch_3-14" x1="7" x2="7" xlink:href="#New_Gradient_Swatch_3" y1="65.284" y2="2.044"/><linearGradient id="New_Gradient_Swatch_3-15" x1="18" x2="18" xlink:href="#New_Gradient_Swatch_3" y1="65.284" y2="2.044"/><path d="m9 7h8v2h-8z" fill="url(#New_Gradient_Swatch_3)"/><path d="m26.486 40.591a2.993 2.993 0 0 1 -2.486-2.955v-23.856l-2 .4v-11.18h-18v14.78l-2 .4v30.82a13.015 13.015 0 0 0 13 13h32v-17.841zm-20.486-35.591h14v9.58l-14 2.8zm39 55h-30a11.013 11.013 0 0 1 -11-11v-29.18l18-3.6v21.416a4.991 4.991 0 0 0 4.143 4.926l18.857 3.279z" fill="url(#New_Gradient_Swatch_3-2)"/><path d="m15 58a9.011 9.011 0 0 1 -9-9v-17h2v17a7.008 7.008 0 0 0 7 7z" fill="url(#New_Gradient_Swatch_3-3)"/><path d="m49 46h7v2h-7z" fill="url(#New_Gradient_Swatch_3-4)"/><path d="m58 46h4v2h-4z" fill="url(#New_Gradient_Swatch_3-5)"/><path d="m49 54h9v2h-9z" fill="url(#New_Gradient_Swatch_3-6)"/><path d="m60 54h2v2h-2z" fill="url(#New_Gradient_Swatch_3-7)"/><path d="m49 50h5v2h-5z" fill="url(#New_Gradient_Swatch_3-8)"/><path d="m56 50h2v2h-2z" fill="url(#New_Gradient_Swatch_3-9)"/><path d="m60 50h2v2h-2z" fill="url(#New_Gradient_Swatch_3-7)"/><path d="m49 58h2v2h-2z" fill="url(#New_Gradient_Swatch_3-11)"/><path d="m53 58h5v2h-5z" fill="url(#New_Gradient_Swatch_3-12)"/><path d="m60 58h2v2h-2z" fill="url(#New_Gradient_Swatch_3-7)"/><path d="m6 28h2v2h-2z" fill="url(#New_Gradient_Swatch_3-14)"/><path d="m17 56h2v2h-2z" fill="url(#New_Gradient_Swatch_3-15)"/></svg>