<svg height="512" viewBox="0 0 64 64" width="512" xmlns="http://www.w3.org/2000/svg" xmlns:xlink="http://www.w3.org/1999/xlink"><linearGradient id="New_Gradient_Swatch_3" gradientUnits="userSpaceOnUse" x1="32" x2="32" y1="66.832" y2=".147"><stop offset="0" stop-color="#006df0"/><stop offset="1" stop-color="#00e7f0"/></linearGradient><linearGradient id="New_Gradient_Swatch_3-2" x1="13" x2="13" xlink:href="#New_Gradient_Swatch_3" y1="66.832" y2=".147"/><path d="m46 40h-13v-7.051a13.008 13.008 0 0 0 12-12.949v-2a3 3 0 0 0 -2-2.816v-8.184a3 3 0 0 0 -3-3 2 2 0 0 0 -2-2 3 3 0 0 0 0 6 2 2 0 0 0 2-2 1 1 0 0 1 1 1v8.184a3 3 0 0 0 -2 2.816v2a7.027 7.027 0 0 1 -2.223 5.111 6.937 6.937 0 0 1 -5.258 1.873 7.168 7.168 0 0 1 -6.519-7.267v-1.717a3 3 0 0 0 -2-2.816v-8.184a1 1 0 0 1 1-1 2 2 0 0 0 2 2 3 3 0 0 0 0-6 2 2 0 0 0 -2 2 3 3 0 0 0 -3 3v8.184a3 3 0 0 0 -2 2.816v2a13.008 13.008 0 0 0 12 12.949v7.051h-12.09a6 6 0 1 0 0 2h12.09v8a12.013 12.013 0 0 0 12 12h3a11 11 0 0 0 0-22zm-8-34a1 1 0 0 1 0-2zm-12-2a1 1 0 0 1 0 2zm-13 41a4 4 0 1 1 4-4 4 4 0 0 1 -4 4zm8-25v-2a1 1 0 0 1 2 0v1.717a9.172 9.172 0 0 0 8.386 9.262 8.933 8.933 0 0 0 6.758-2.407 9.033 9.033 0 0 0 2.856-6.572v-2a1 1 0 0 1 2 0v2a11 11 0 0 1 -22 0zm25 40h-3a10.011 10.011 0 0 1 -10-10v-8h13a9 9 0 0 1 0 18z" fill="url(#New_Gradient_Swatch_3)"/><circle cx="13" cy="41" fill="url(#New_Gradient_Swatch_3-2)" r="2"/></svg>