<svg height="512" viewBox="0 0 64 64" width="512" xmlns="http://www.w3.org/2000/svg" xmlns:xlink="http://www.w3.org/1999/xlink"><linearGradient id="New_Gradient_Swatch_3" gradientUnits="userSpaceOnUse" x1="32.136" x2="32.136" y1="66.242" y2="-2.251"><stop offset="0" stop-color="#006df0"/><stop offset="1" stop-color="#00e7f0"/></linearGradient><linearGradient id="New_Gradient_Swatch_3-2" x1="54.349" x2="54.349" xlink:href="#New_Gradient_Swatch_3" y1="66.242" y2="-2.251"/><path d="m58.627 5.373a11.011 11.011 0 0 0 -15.556 0l-26.871 26.87a10.956 10.956 0 0 0 -2.293 12.192l-10.313 10.314a4 4 0 0 0 5.657 5.657l10.325-10.326a10.881 10.881 0 0 0 12.181-2.28l26.87-26.87a11 11 0 0 0 0-15.556zm-50.79 53.619a2 2 0 0 1 -2.829-2.829l26.042-26.042 2.829 2.829zm24.627-30.285 15.557-15.556a2.047 2.047 0 0 1 2.828 0 2 2 0 0 1 0 2.828l-15.556 15.557zm24.749-9.192-2.828 2.828-2.122-2.121-1.414 1.414 2.122 2.121-1.415 1.415-2.121-2.122-1.414 1.414 2.121 2.122-1.414 1.414-2.122-2.121-1.414 1.414 2.122 2.121-1.414 1.415-2.121-2.122-1.414 1.414 2.121 2.122-1.414 1.414-2.122-2.121-1.414 1.414 2.121 2.121-1.414 1.414-2.122-2.121-1.414 1.414 2.122 2.122-1.415 1.415-2.121-2.122-1.414 1.414 2.121 2.121-1.414 1.414-2.122-2.121-1.414 1.414 2.122 2.121-1.415 1.415-2.121-2.122-1.414 1.414 2.121 2.122a8.959 8.959 0 0 1 -9.236 2.164l31.156-31.155a4 4 0 0 0 0-5.657 4.1 4.1 0 0 0 -5.657 0l-31.155 31.156a8.961 8.961 0 0 1 2.164-9.236l2.122 2.121 1.414-1.414-2.122-2.121 1.415-1.415 2.121 2.122 1.414-1.414-2.121-2.122 1.414-1.414 2.122 2.121 1.414-1.414-2.122-2.121 1.414-1.415 2.121 2.122 1.414-1.414-2.121-2.122 1.414-1.414 2.121 2.121 1.414-1.414-2.121-2.121 1.414-1.414 2.122 2.121 1.414-1.414-2.121-2.122 1.415-1.415 2.121 2.122 1.414-1.414-2.121-2.121 1.414-1.414 2.122 2.121 1.414-1.414-2.122-2.121 1.415-1.415 2.121 2.122 1.414-1.414-2.121-2.122 2.828-2.828a9 9 0 0 1 12.728 12.728z" fill="url(#New_Gradient_Swatch_3)"/><path d="m55.8 8.2a6.953 6.953 0 0 0 -4.95-2.047v2a4.993 4.993 0 0 1 5 5h2a6.952 6.952 0 0 0 -2.05-4.953z" fill="url(#New_Gradient_Swatch_3-2)"/></svg>