<?xml version="1.0"?>
<svg xmlns="http://www.w3.org/2000/svg" xmlns:xlink="http://www.w3.org/1999/xlink" viewBox="0 0 64 64" width="512" height="512"><defs><linearGradient id="New_Gradient_Swatch_3" x1="32" y1="65.21" x2="32" y2="1.53" gradientUnits="userSpaceOnUse"><stop offset="0" stop-color="#006df0"/><stop offset="1" stop-color="#00e7f0"/></linearGradient></defs><g id="Weir"><path d="M57.683,38.1A14.7,14.7,0,0,0,47.608,34H37a3,3,0,0,1-3-3V2H2V49A13.015,13.015,0,0,0,15,62H48A14.009,14.009,0,0,0,62,48.008,13.668,13.668,0,0,0,57.683,38.1ZM4,19.912l28-1.867V22.18L4,27.78ZM32,4V8H10v2H32v6.041L4,17.908V10H8V8H4V4ZM4,40.7l6.345-2.327-.69-1.878L4,38.568V29.82l28-5.6V28.3L11.62,35.774l.69,1.878L32,30.432V31a4.946,4.946,0,0,0,.719,2.543L5.9,55.176A10.937,10.937,0,0,1,4,49ZM7.176,56.72,34.064,35.028A4.959,4.959,0,0,0,37,36h.269L23.423,60H15A10.966,10.966,0,0,1,7.176,56.72ZM40.315,60l1.54-6.742-1.949-.446L38.264,60H25.731L39.577,36h4.169L40.372,50.772l1.949.446L45.8,36h1.811A12.1,12.1,0,0,1,50,36.242v23.58A12.072,12.072,0,0,1,48,60Zm16.168-3.517A11.954,11.954,0,0,1,52,59.3V36.832a12.8,12.8,0,0,1,4.3,2.71A11.68,11.68,0,0,1,60,48.007,11.923,11.923,0,0,1,56.483,56.483Z" style="fill:url(#New_Gradient_Swatch_3)"/></g></svg>
