<svg width="233" height="225" viewBox="0 0 233 225" fill="none" xmlns="http://www.w3.org/2000/svg">
<path d="M90.085 148.092L107.094 131.082C107.094 131.082 116.575 122.904 124.537 131.082C130.292 136.993 151.491 158.122 162.803 169.384C166.789 173.354 166.796 179.804 162.819 183.781L156.208 190.391C152.148 194.451 145.565 194.451 141.505 190.391L102.895 151.783C102.895 151.783 95.731 142.445 90.085 148.092Z" fill="#022B31"/>
<path d="M111.361 169.518L97.8273 155.984C97.8273 155.984 90.9029 148.48 83.2791 155.984C76.5314 162.623 69.8529 169.408 69.8529 169.408C65.8962 173.367 65.8962 179.781 69.8529 183.739L75.756 189.643C80.2709 194.156 87.591 194.156 92.1061 189.643L111.796 169.999L111.361 169.518" fill="#022B31"/>
<path d="M173.316 215.003C165.103 215.003 158.443 208.343 158.443 200.129C158.443 191.915 165.103 185.255 173.316 185.255C181.532 185.255 188.191 191.915 188.191 200.129C188.191 208.343 181.532 215.003 173.316 215.003ZM57.152 215.003C48.937 215.003 42.278 208.343 42.278 200.129C42.278 191.915 48.938 185.255 57.152 185.255C65.367 185.255 72.025 191.915 72.025 200.129C72.025 208.343 65.367 215.003 57.152 215.003" fill="#022B31"/>
<path d="M81.911 89.807L98.921 106.816C98.921 106.816 107.099 116.297 98.921 124.259C93.01 130.014 71.881 151.213 60.619 162.525C56.649 166.511 50.199 166.518 46.222 162.541L39.612 155.93C35.552 151.87 35.552 145.287 39.612 141.227L78.22 102.617C78.22 102.617 87.558 95.453 81.911 89.807Z" fill="#022B31"/>
<path d="M60.4854 111.083L74.0195 97.5493C74.0195 97.5493 81.5234 90.6249 74.0195 83.0011C67.3795 76.2534 60.5949 69.5749 60.5949 69.5749C56.6361 65.6182 50.2217 65.6182 46.2644 69.5749L40.3605 75.478C35.847 79.9929 35.847 87.313 40.3605 91.8281L60.0042 111.518L60.4854 111.083" fill="#022B31"/>
<path d="M15 173.038C15 164.825 21.66 158.165 29.874 158.165C38.088 158.165 44.748 164.825 44.748 173.038C44.748 181.254 38.088 187.913 29.874 187.913C21.66 187.913 15 181.254 15 173.038ZM15 56.874C15 48.659 21.66 42 29.874 42C38.088 42 44.748 48.66 44.748 56.874C44.748 65.089 38.088 71.747 29.874 71.747C21.66 71.747 15 65.089 15 56.874" fill="#022B31"/>
<path d="M149.645 140.106L132.635 123.097C132.635 123.097 124.457 113.616 132.635 105.654C138.546 99.899 159.675 78.7 170.937 67.388C174.907 63.402 181.357 63.395 185.334 67.372L191.944 73.983C196.004 78.043 196.004 84.626 191.944 88.686L153.336 127.296C153.336 127.296 143.998 134.46 149.645 140.106Z" fill="#022B31"/>
<path d="M171.07 118.83L157.536 132.364C157.536 132.364 150.032 139.288 157.536 146.912C164.176 153.66 170.961 160.338 170.961 160.338C174.92 164.295 181.334 164.295 185.291 160.338L191.195 154.435C195.709 149.92 195.709 142.6 191.195 138.085L171.551 118.395L171.07 118.83" fill="#022B31"/>
<path d="M216.556 56.875C216.556 65.088 209.896 71.748 201.682 71.748C193.468 71.748 186.808 65.088 186.808 56.875C186.808 48.659 193.468 42 201.682 42C209.896 42 216.556 48.659 216.556 56.875ZM216.556 173.039C216.556 181.254 209.896 187.913 201.682 187.913C193.468 187.913 186.808 181.253 186.808 173.039C186.808 164.824 193.468 158.166 201.682 158.166C209.896 158.166 216.556 164.824 216.556 173.039" fill="#022B31"/>
<path d="M140.106 81.911L123.097 98.921C123.097 98.921 113.616 107.099 105.654 98.921C99.899 93.01 78.7 71.881 67.388 60.619C63.402 56.649 63.395 50.199 67.372 46.222L73.983 39.612C78.043 35.552 84.626 35.552 88.686 39.612L127.296 78.22C127.296 78.22 134.46 87.558 140.106 81.911Z" fill="#022B31"/>
<path d="M118.83 60.4854L132.364 74.0195C132.364 74.0195 139.288 81.5234 146.912 74.0195C153.66 67.3795 160.338 60.5949 160.338 60.5949C164.295 56.6361 164.295 50.2217 160.338 46.2645L154.435 40.3605C149.92 35.847 142.6 35.847 138.085 40.3605L118.395 60.0042L118.83 60.4854" fill="#022B31"/>
<path d="M56.875 15C65.088 15 71.748 21.66 71.748 29.874C71.748 38.088 65.088 44.748 56.875 44.748C48.659 44.748 42 38.088 42 29.874C42 21.66 48.659 15 56.875 15ZM173.039 15C181.254 15 187.913 21.66 187.913 29.874C187.913 38.088 181.253 44.748 173.039 44.748C164.824 44.748 158.166 38.088 158.166 29.874C158.166 21.66 164.824 15 173.039 15" fill="#022B31"/>
</svg>
