<svg xmlns="http://www.w3.org/2000/svg" height="224.587" width="232.507"><defs><linearGradient id="b" spreadMethod="pad" gradientTransform="scale(149.794 -149.794) rotate(48.918 9.417 6.218)" gradientUnits="userSpaceOnUse" y2="0" x2="1" y1="0" x1="0"><stop offset="0" stop-color="#f2512d"/><stop offset=".826" stop-color="#f57b19"/><stop offset="1" stop-color="#f57b19"/></linearGradient><linearGradient id="d" spreadMethod="pad" gradientTransform="scale(233.522 -233.522) rotate(-42.99 -4.202 -7.658)" gradientUnits="userSpaceOnUse" y2="0" x2="1" y1="0" x1="0"><stop offset="0" stop-color="#328096"/><stop offset=".048" stop-color="#328096"/><stop offset=".945" stop-color="#3ab197"/><stop offset="1" stop-color="#3ab197"/></linearGradient><linearGradient id="f" spreadMethod="pad" gradientTransform="scale(-116.707 116.707) rotate(46.005 -11.6 -1.408)" gradientUnits="userSpaceOnUse" y2="0" x2="1" y1="0" x1="0"><stop offset="0" stop-color="#e3362e"/><stop offset=".647" stop-color="#f2512d"/><stop offset="1" stop-color="#f2512d"/></linearGradient><linearGradient id="h" spreadMethod="pad" gradientTransform="scale(-268.188 268.188) rotate(-44.563 .828 4.417)" gradientUnits="userSpaceOnUse" y2="0" x2="1" y1="0" x1="0"><stop offset="0" stop-color="#13333c"/><stop offset=".008" stop-color="#13333c"/><stop offset=".923" stop-color="#1b4b54"/><stop offset="1" stop-color="#1b4b54"/></linearGradient><clipPath id="a" clipPathUnits="userSpaceOnUse"><path d="M1273.89 791.898l-101.51-101.515s-56.28-51.934 0-109.113c49.81-50.598 100.7-100.692 100.7-100.692 29.68-29.68 77.8-29.68 107.48 0l44.27 44.274c33.86 33.847 33.86 88.757 0 122.617l-147.32 147.679z"/></clipPath><clipPath id="c" clipPathUnits="userSpaceOnUse"><path d="M893.281 1231.73l101.512-101.51s51.927-56.27 109.107 0c50.62 49.81 100.7 100.7 100.7 100.7 29.68 29.68 29.68 77.8 0 107.48l-44.27 44.27c-33.86 33.87-88.76 33.87-122.62 0l-147.683-147.31z"/></clipPath><clipPath id="e" clipPathUnits="userSpaceOnUse"><path d="M453.445 852.875l101.512 101.504s56.273 51.931 0 109.111c-49.809 50.62-100.699 100.7-100.699 100.7-29.676 29.68-77.801 29.68-107.481 0l-44.265-44.26c-33.867-33.87-33.867-88.77 0-122.633l147.312-147.684z"/></clipPath><clipPath id="g" clipPathUnits="userSpaceOnUse"><path d="M835.23 413.031L733.723 514.539s-51.934 56.281-109.114 0C574 464.738 523.91 413.852 523.91 413.852c-29.676-29.692-29.676-77.801 0-107.481l44.274-44.281c33.863-33.852 88.765-33.852 122.629 0l147.675 147.332z"/></clipPath></defs><path d="M148.428 140.28l-17.01-17.009s-8.177-9.482 0-17.444c5.913-5.754 27.04-26.952 38.303-38.266 3.968-3.985 10.419-3.993 14.398-.014l6.61 6.609c4.059 4.061 4.059 10.644 0 14.704l-38.61 38.609s-9.336 7.166-3.691 12.81" fill="#f57b19"/><g clip-path="url(#a)" transform="matrix(.13333 0 0 -.13333 0 224.587)"><path d="M1273.89 791.898l-101.51-101.515s-56.28-51.934 0-109.113c49.81-50.598 100.7-100.692 100.7-100.692 29.68-29.68 77.8-29.68 107.48 0l44.27 44.274c33.86 33.847 33.86 88.757 0 122.617l-147.32 147.679-3.62-3.25" fill="url(#b)"/></g><path d="M215.339 57.048c0 8.215-6.659 14.875-14.874 14.875-8.214 0-14.874-6.66-14.874-14.875s6.66-14.873 14.874-14.873c8.215 0 14.874 6.658 14.874 14.873M215.339 173.212c0 8.216-6.659 14.875-14.874 14.875-8.214 0-14.874-6.66-14.874-14.875s6.66-14.873 14.874-14.873c8.215 0 14.874 6.658 14.874 14.873" fill="#f57b19"/><path d="M140.384 81.78l-17.01 17.008s-9.48 8.18-17.443 0c-5.754-5.91-26.953-27.039-38.265-38.301-3.987-3.968-3.993-10.419-.016-14.396l6.611-6.611c4.06-4.06 10.642-4.06 14.703 0l38.608 38.61s7.167 9.335 12.812 3.69" fill="#3bb197"/><g clip-path="url(#c)" transform="matrix(.13333 0 0 -.13333 0 224.587)"><path d="M893.281 1231.73l101.512-101.51s51.927-56.27 109.107 0c50.62 49.81 100.7 100.7 100.7 100.7 29.68 29.68 29.68 77.8 0 107.48l-44.27 44.27c-33.86 33.87-88.76 33.87-122.62 0l-147.683-147.31 3.254-3.63" fill="url(#d)"/></g><path d="M57.152 14.87c8.215 0 14.873 6.658 14.873 14.873 0 8.214-6.658 14.873-14.873 14.873s-14.874-6.659-14.874-14.873c0-8.215 6.66-14.874 14.874-14.874M173.316 14.87c8.216 0 14.875 6.658 14.875 14.873 0 8.214-6.659 14.873-14.875 14.873-8.213 0-14.873-6.659-14.873-14.873 0-8.215 6.66-14.874 14.873-14.874" fill="#3bb197"/><path d="M81.884 89.592l17.009 17.009s8.178 9.482 0 17.442c-5.912 5.754-27.04 26.953-38.302 38.267-3.97 3.986-10.42 3.993-14.398.014l-6.61-6.61c-4.06-4.06-4.06-10.642 0-14.702l38.61-38.61s9.336-7.165 3.69-12.81" fill="#f2512d"/><g clip-path="url(#e)" transform="matrix(.13333 0 0 -.13333 0 224.587)"><path d="M453.445 852.875l101.512 101.504s56.273 51.931 0 109.111c-49.809 50.62-100.699 100.7-100.699 100.7-29.676 29.68-77.801 29.68-107.481 0l-44.265-44.26c-33.867-33.87-33.867-88.77 0-122.633l147.312-147.684 3.621 3.262" fill="url(#f)"/></g><path d="M14.972 172.823c0-8.215 6.66-14.874 14.874-14.874s14.874 6.659 14.874 14.874c0 8.216-6.66 14.874-14.874 14.874s-14.874-6.658-14.874-14.874M14.972 56.659c0-8.216 6.66-14.875 14.874-14.875S44.72 48.443 44.72 56.659c0 8.213-6.66 14.873-14.874 14.873s-14.874-6.66-14.874-14.873" fill="#f2512d"/><path d="M90.085 148.092l17.009-17.01s9.481-8.178 17.443 0c5.755 5.911 26.954 27.04 38.266 38.302 3.986 3.97 3.993 10.42.016 14.397l-6.611 6.61c-4.06 4.06-10.643 4.06-14.703 0l-38.61-38.608s-7.164-9.338-12.81-3.691" fill="#1b4c54"/><g clip-path="url(#g)" transform="matrix(.13333 0 0 -.13333 0 224.587)"><path d="M835.23 413.031L733.723 514.539s-51.934 56.281-109.114 0C574 464.738 523.91 413.852 523.91 413.852c-29.676-29.692-29.676-77.801 0-107.481l44.274-44.281c33.863-33.852 88.765-33.852 122.629 0l147.675 147.332-3.258 3.609" fill="url(#h)"/></g><path d="M173.316 215.003c-8.213 0-14.873-6.66-14.873-14.874s6.66-14.874 14.873-14.874c8.216 0 14.875 6.66 14.875 14.874s-6.659 14.874-14.875 14.874M57.152 215.003c-8.215 0-14.874-6.66-14.874-14.874s6.66-14.874 14.874-14.874c8.215 0 14.873 6.66 14.873 14.874s-6.658 14.874-14.873 14.874" fill="#1b4c54"/></svg>